<?xml version="1.0" encoding="UTF-8"?>
<svg id="Layer_2" data-name="Layer 2" xmlns="http://www.w3.org/2000/svg" viewBox="0 0 916.61 904.78">
  <defs>
    <style>
      .cls-1 {
        fill: #262626;
      }
    </style>
  </defs>
  <g id="Layer_1-2" data-name="Layer 1">
    <g>
      <path class="cls-1" d="M244.63,57.24c-.03-.65-.09-1.29-.19-1.95l.19,1.95Z"/>
      <path class="cls-1" d="M462.66,602.22v-66.91c-5.31,2.64-3.05,8.73-2.92,13.09l-1.43-5.81-4.24.12c-.48.4-.25,7.97-3.8,4.24l2.22-10.17c-2.37,2.47-9.96-8.75-9.83-9.49.28-1.6,3.37-2.68,3.56-4.34.1-.85-3.55-11.51-3.81-13.14-.5-3.12,0-6.3-.13-9.41-3.88-.49-3.7-.09-5.08,2.91-2.04-5.64-7.99-7.07-6.56-13.1-5.59-1.48.76,6.29-4.35,7.28-.5-4.86,1.67-11.03-2.2-14.53l-1.44,4.35-.8-4.26-6.6-1.44c-2.05-5.31,3.34-9.54-2.8-13.2l.74,7.26-6.66,1.37-2.1,11.72c-2.42.62-.57-2.53-2.4-2.94-1.9-.42-4.17.55-6.11-.14l-1.67-5.65-4.21,1.37-2.32-4.25-1.44,5.81c-2.32-3.53-3.69-7.79-5.8-1.43l-4.41-4.43-5.06,2.95c-1.02-9.68-6.73-6.57-4.38,1.44l-5.81-3.63,4.37-1.45c-.02-1.47-5.61.49-4.41-3.62l-3.62,4.34-.72-4.37-4.12.37-1.68,2.54-1.48-14.55-4.35.02,2.19,1.79.7,5.47-2.08-2.77-3.71,1.32v-20.35c-6,1.47-7-5.24-.2-4.5l.18-5.68-4.05-.71-.32-15.29-4.28,1.59,1.38,11.49-4.35-1.44-.03,4.89,2.94,3.1c-5.65.83-.74,6.46-4.36,8l-1.49-10.17-2.92,4.35-5.09-4.49-7.97,3.04-1.51-7.28h-8.7s0-13.09,0-13.09c-4.93-1.48-2.28,5.4-5.78,5.81l-5.83-10.16-2.91,7.27-1.48-13.09c-3.58,2.96-6.89,3.58-11.56,2.83l-1.44-6.65-4.43-.54-.03-7.27-4.33,11.62c-.26-3.71-1.2-5.12-4.4-6.54l4.41-.74-.11-5.71-7.19-1.57,2.17-3.61v-38.55c-4.69-.73-3.25,11.73-2.33,13.86l-2.74.7,2.9,1.45c-5.62,4.71.17,6.72-.22,9.16-.41,2.54-5.88,4.81.21,9.02l-2.99,1.66.09,9.25,2.91-.73c1.07,3.02-2.55,1.6-2.94,3.11-.58,2.24.35,5.34,0,7.79-5.38-2.37.55-10.71-5.79-13.09l-.03,13.08-2.88-4.35-5.12,14.53-4.35-8.72c-3.24,1.34-2.06,8.67-2.2,11.62l-2.88-.69,1.42-5.11h-5.82s0,5.8,0,5.8l-7.26-2.91-.73,4.37-5.81-5.83c-1.75,4.92-6.29,4.39-10.94,4.39v5.8l-2.9-10.18-2.91,7.28-2.92-4.36-2.92,4.37-5.78-1.46,1.45-5.81-4.18-.13c.15-2.73-1.22-5.86-1.26-8.22-.03-2.07,1.54-9.58,1.17-12.59l-3.05-1.62.03-2.16,3.66-1.49,2.14,2.92v-5.82c-2.81,2.41-3.21-.86-5.82-2.17l5.82.73c1.66-4.98-2.9-4.15-3.78-6.48-2-5.31,6.95-7.77,3.78-15.33l-2.88,5.8-1.48-20.35c4.66.35,4.91.33,4.36-4.37l-5.82,2.17c2.83-1.13,3.44-1.82,2.94-5.11l2.89,1.48c1.68-2.3-2-13.45,4.36-13.12h-5.79c-.36-5.73,4.23-10.19,8.7-13.07-.22,1.5.49,5.07-.12,5.69-.83.85-4.72-1.23-4.22,1.56l5.79,2.93-1.43-13.08,4.37,10.17c1.76,2.03,4.35-10.07,3.94-12.16-.28-1.43-2.46-2.49-2.56-4.54-.02-.33,4.6-1.44,2.99-5.11l2.88,2.89.81-4.46,6.49.09c-2.28-3.68,1.28-12.95,5.8-10.17,1.21-2.1-1.57-12.05,2.91-13.1l1.46,4.36,4.4-18.9,2.91,7.26c4.46-2.56-.06-7.6,4.38-11.61l4.33,5.81c.9-4.04-1.49-10,2.94-10.92l-2.92-.73.02-2.88,2.89-.76v-1.43s-2.93-.76-2.93-.76c3.45-6.87,9.65,3.48,8.75,8.73l1.45-2.9,2.16,2.91,2.2-13.08,5.59,1.68,1.66,5.58.02-10.18,5.14.09,1.4-7.34c3.82,3.66-2.85,9.47,5.09,10.2l-2.97,2.17.09,3.62,2.88-2.9c2.01,6.04-3.04,4.42-2.88,8.73l2.74-1.26,1.59,2.7c1.37-2.97,5.21-12.32.03-11.64l2.91-2.16-2.9-.75.05-2.07c4.81-4,2.13-12.53,7.18-15.37l-1.44,7.26c9.47-.39,5.65-1.87,6.99-6.63,2.29-8.11,3.46-15.15,3.2-23.9,6.32,2.19-.87,10.93,4.34,13.08-1.61-3.58,3.02-4.84,3-5.14-.13-1.65-1.88-2.87-2.16-4.37-1.52-8.19,3.08-3.93,5.72-9.41l3.62,4.38c.46-3.21-.82-7.86.21-10.74.75-2.1,3.61-2.02,3.96-2.52.33-.47-1.15-9.45-1.26-11.45,7.91,1.29,4.66-1.63,6.28-3.88.68-.95,2.46-1.08,3.04-1.94.59-.86-.69-2.81-.58-2.91,3.26-2.81,2.22,3.62,4.35,2.89l.74-4.37,2.17,2.92c-2.91-7.98.82-4.8,2.53-7.93.23-.42-.75-7.89.41-9.52,6.71-1.22-2.37,7.05,4.35,5.83v-18.9c4.14-.84,2.33,1.22,3.37,3.11,2.47,4.5,4.58,7.62,2.46,12.87,4.53.44,4.56-3.88,4.37-7.27,6.33,3.34,6.84-2.35,0-1.46v-10.16c2.91-.41-.25,3.73,3.61,2.91,1.55-.33.49-2.46.75-3.64l-4.47-1.53.09-12.29c-5.49-1.11-.97,3.03-2.05,4.43l-5.22,1.4c-.78,3.9.92,2.1,2.92,3.6l-5.82,6.55,1.35-12.35-2.09-1.73-3.62,1.03-2.93-17.48-5.79,4.35c.91-5.51-3.52-.6-4.37-1.45-2.67-2.67,3.09-3.08,2.91-3.61l-5.11-6.56-.73,4.36c-4.91-2.96-2.72-11.78-5.69-16.85,2.36-1.09,3.44.02,2.79-3.51-5.99-.61-10.16,4.11-15.99,1.45-1.06,1.03,4.73,8.64-1.45,7.26.52-3.27-.16-3.89-2.92-5.08l2.83-4.19-4.2-4.72,2.81-6.37-4.36,1.44-2.9-2.89c-.7.69,2.59,17.58-2.89,18.9l.06-19.56-3-1.53c6.71-2.12-2.04-11.04,1.48-16.68-5.42-.78-6.74-1.51-5.84-7.31l-3.64,26.16-.71-10.16-3.62,4.35-2.91-8.71c-2.73,1.84-6.66,7.69-.74,7.28l-3.01,2.3,1.57,6.4c-7.37,1.67-3.71-18.89-6.55-18.91l-2.17,17.46-1.26-12.59c.37,6.86-2.92,13.28-3.77,19.64-.49,3.66,2.75,8.68-1.54,11.85-1.76-2.37-.07-6.38-.75-9.19-.27-1.12-2.74-.95-2.94-1.9-1.02-5.07,6.13-7.59.05-11.46l2.93-1.45c-4.89-1.16-2.58-5.19-2.94-9.45-2.06.19-2.54,6.52-2.71,8.18-.46,4.54-.07,9.1-.2,13.63-5.26-2.02-1.76-7.26-1.92-10.71-.15-3.3-3.96-9.66-5.34-4.55-.42,1.54,3.6-.44,2.89,2.16l-2.98.82c2.96,7.08-.22,15,.08,22.47l-4.35-2.18,2.92-1.45-2.94-1.45,2.92-2.17-4.4-.8.02-10.84-1.41,3.35-2.91.98c-1.9-4.3-4.43-4.48-3.66-10.14l-3.68,5.09,2.95,3.62-5.82.02,2.91,7.24-7.27-4.34-.02,29.08c-2.54.34-1.37-3.3-1.44-5.07-.15-3.63.12-7.3-.01-10.92-1.87.43-3.24,2.35-3.96,4.02-1.37,3.17-.52,8.91-3.3,10.52v-24c0-1.44,1.93-6.35-1.44-6.54l-.36,27.02-4.01,2.09,2.91,4.33-5.81,1.47-.05-10.7,2.93-2.37-4.34-1.47-1.45,7.27.02-12.15-2.96-1.66,2.93-.74-2.98-2.39.06-10.69c-.3-.4-1.91.78-2.21,1.44-1.56,3.4.6,27.81.76,33.46-7.07.7-.44-10.17-5.8-11.63l-.02,17.45c-4.96.28-3.07-2.2-3.31-3.98-.56-4.11-1.6.66-2.49-.36-1.63-1.88.85-3.71,2.88-2.96-4.36-5.21-.37-13.31-2.18-20.36l-5.08-1.41c2.35,4.09,1.07,5.33-1.44,8.69,2.32-.64,4.37.96,2.89,2.93-.69.92-5.92-4.89-4.34,2.91l4.35,1.44-4.36.74,4.35,5.1-5.05-.04-2.15,5.21c-.02,1.05,2.71.45,2.85.65v-4.36h2.9v4.35h-2.9c.61.85-.43,8.12-.01,10.19-3.41-1.23-5.1-1.81-4.36-5.82-.42-.5-4.35,3.36-4.35,3.64v25.46c-3.01-.66-2.37-2.55-2.55-4.68-.93-10.72-.65-22.35-.37-33.14l-5.8,2.93c-1.37,5.62,3.24-.93,2.91,3.59l-2.94,1.47c-.1,1.46,2.35-.02,2.63,1.41,1.03,5.31-2.55,5.59-2.64,6.1-.62,3.8,1.06,10.18,1.03,12.61-.04,3.67-1.13,7.44-1.01,11.16h-4.35s0-13.11,0-13.11l2.91-.7c-7.11-3-1.33-13.41-4.4-19.65-5.36-1.21-2.14,7.6-2.92,10.7l2.96,1.66c-5.85,1.36-1.77,6.44-2.11,10.26-.28,3.14-5.17,6.54-2.28,12.28l-5.81-10.18v23.27c-2.73-.67-2.7-2.27-2.6-4.63.35-8.47,1.86-25.55.82-33.49-.18-1.33-1.12-2.61-1.21-4l-2.65,1.15-1.61-2.67c-.37,3.72-.32,7.12,2.9,9.46l-2.97,2.9,2.98,5.8-2.91-.73-.05,3.67,2.97,1.44-2.97,1.65.03,13.6c-3.8,2.54-3.66-9.51-3.66-10.99,0-2.77,4.16-7.92-2.14-10.81,1.47,5.25-10.74,8.37-.03,8.78v11.58s-4.36,1.45-4.36,1.45l4.37,1.44-4.37.74,4.39.73-.03,4.36-7.25-1.46,2.88,7.27h-7.25c1.82-5.39,2.02-7.12-2.9-10.17,1.3,12.05-2.32,24.84-.02,36.34-4.8,1.15-2.54-5.66-3.26-9.09-.3-1.45-2.36-2.46-2.62-4.7-.04-.38,4.92-1.26,2.95-5.1-2.55-.74-.7,3.5-2.16,2.9-4.48-1.84,4.29-10.12-3.63-13.09.11,12.83.86,26.44-2.83,38.65,1.24,4.86,1.68,8.79-1.55,13.05l3.02,1.46-4.5,10.84-2.71-3.41,2.73-3.14c-4.42-.96-1.28-8.07-2.96-12.31l-7.23-.04-1.43-11.64-2.91,7.26,2.9.02-2.54,1.68c-2.69,6.92,4.59,1.81,6.91,7.02l-5.81-1.45-1.43,20.89-2.96,1.66c4.19,1.1,2.98,3.29,3.02,7.23l-4.29.86-.17,8.63c-4.15.69-2.42-.88-3.1-3.36-3.1-11.28.22-25.5-1.27-37.35-3.95,1.25-1.21,7.72-1.31,10.88-.1,2.97-1.29,5.64-1.45,8.59-.35,6.88.08,11.35-1.02,19.33-.4,2.91,3.07,7.74-3.48,7.73,1.16-4.15,1.42-9.34.85-13.56-.19-1.44-.22-4.24-2.31-3.89v21.82l-2.89-2.9-2.91,4.35-.03-11.64c-8.57,1.33-1.97,8.67-2.91,12.17-1.96,7.31-1.31,8.9-1.84,17.61-.27,4.5-1.86,9.07-1.07,13.85l-1.42-9.32-4.39-.84,2.91,7.25-4.35-1.46-1.45,4.37-2.91-5.81-1.48,21.81-7.26-5.8-.23,33.32-2.71.86,2.96,1.66.02,9.73-4.41,2.43-1.46-4.37v24.74c4.37-.9.82-6.96,2.15-8.73,2.64-3.52,6.56,4.04.75,5.08,4.52,3.3-1.56,6.01,2.92,11.63-5.76,2.78-.91-5.17-5.82-3.63l-1.47,16h4.37s-1.45-5.8-1.45-5.8c5.44-.23,4.47,5.5,4.35,8.72l-7.26-1.44v62.53s4.36,0,4.36,0c.97-.81-4.68-8.69,1.45-7.27l1.47,10.17-5.11-1.39-3.66,5.05,2.95,4.36-2.9.73c5.08,4.69.81,6.02.61,9.4-.38,6.16,1.7,16.84,1.86,22.98.18,6.69-1.51,13.33.45,19.97l1.44-5.8c5.75.11,5.45,5.05,1.45,8l2.9,3.62-7.24-2.2c1.59,1.03.83,4.38,2.1,4.91.96.4,11.13-.44,2.23,3.84l2.9,1.62c-1.95,5.69,4.28,12.96-2.88,15.82,6.41,5.54,1.63,13.66,2.94,20.35,1.17,5.94,6.64,4.35,7.27,5.85.52,1.25.28,4.98-2.19,3.63l-3.64-4.34-1.46,5.81,7.15.12.12,10.06,5.8-1.45v4.36s-5.8-1.45-5.8-1.45v4.36s5.8-1.46,5.8-1.46l1.45,5.81,4.39-7.97-4.37.71c-2.19-7.46,2.4-6.77,3.65-8.7,2.71-4.18-1.81-13.05-2.07-16.68-.25-3.52,4.93-14.25-1.58-13.92l2.88-1.44c1.51-3.56-1.94-2.53-2.35-3.2-.36-.58.45-1.94-.02-2.6-1.43-2-5.26-1.24-3.31-7.18l4.23-.82-1.47-3.64-2.88,2.89c-2.26-5.72,1.44-13.14-2.92-16.73l2.9-.73-2.9-3.63c4.45-1.56,4.23-4.59-.02-5.81l2.92-1.45-5.91-3.01.11-4.99,5.8,3.64c-2.56-2.74-2.7-6.12-7.27-5.11,2.19-3.97-.9-8.85.13-12.19.8-2.59,5.33-1.34,4.25-4.52l-4.41-1.53.05-89.41h5.8s-5.81-1.44-5.81-1.44v-5.83c4.54,3.39,8.26-2.69,7.28-7.27l2.88,4.35.03-7.26,4.34,1.45,1.45-5.8,2.84,12.54,8.82,2-1.46,5.79,5.75.09,2.99,27.56,1.45-10.18h4.35l.02,8.73,4.34-1.45.68,7.36c5.46.61,9.02,2,8.08,8.64l4.37-10.18,4.19,1.64-1.31,8.54,4.38.02c-.45,6.25,1.33,12.14,0,18.89l4.24-5.18-2.78-3.54,4.34,1.45,1.45-8.72,1.49,33.44c2.04.46,2-2.83,2.04-4.17.31-11.43-1.94-22.58,2.32-33.66l4.19,1.23.18-2.64,2.16-.03-.72,2.91,3.67-1.42.72,5.8,3.62-5.79c1.52.11,2.93,7.14,6.55,5.78l-1.08-2.58c5.09-.21.41-6.65,3.98-7.58l.03,7.26c3.27-.85,1.58-5.63,5.79-4.36l4.37,8.72,1.69-5.6,5.6-.2c-2.41,1.91.69,6.84,2.2,7.27,4.28,1.22.63-9.76,5.06-10.19-1.28,5.25,1.05,6.31,2.95,10.16l2.15-4.34c4.16,1.82,4.13,2.72,3.64,7.27l5.77.04.07,14.5c3.61-.35,1.63-14.37,6.56-10.21l.61,82.12c.42,1.55,2.98.37,4.05,1.11,3.25,2.25.8,26.61,2.07,31.52l4.96,1.53.66,8.83,1.45-7.27,5.8,1.47-4.37,1.45c-.97,4.03,2.81,2.43,4.8,6.22,1.44,2.73.39,10.76,1.05,14.13,2.89-1.65,1.25-8.75,1.88-11.71.55-2.6,1.68-2.33,2.46-1.37l1.48,75.62,2.91-78.53,1.45,4.37,4.34-1.47c-1.95,11.14,12.65,14.75,20.36,8.73l2.94,13.08,4.33-4.35,1.58,7.18,4.25.1c1.08-1.04-2.47-8.86,2.91-7.28-.03,1.73,1.32,13.62,1.74,14.21.56.78,2.86.63,3.8,2.77,1.09,2.48.9,7.69,1.76,10.66l4.33-4.36c.22,3.32,2.14,6.53,2.84,9.56,1.02,4.39-3.9-1.7-2.84,2.81,1.65,6.97,4.05,13.29,2.94,21.08,4.84-.88-1.43-8.75,4.33-7.26,2.71,2.52-2.61,11.33,2.92,10.17l1.45-8.71,1.48,30.55,2.89-1.47.03,5.83c4.03-1.13,8.81-6.66,2.93-7.29-.18-5.7,3.49.24,1.79-6.87-.67-2.83.12-1.76,2.53-1.85l2.94,30.54,2.88-2.89c-.19,4.15,3.73,4.43,5.47,6.26.69.73.17,2.28.42,2.91.75,1.9,2.32-1.04,2.84-.47,2.51,2.73-2.8,3.07-2.76,3.53,4.19,16.35-.94,33.73.51,50.26.12,1.36.4,4.1.81,5.11.14.35,7.88-1.21,0,2.93l4.38,2.92-4.37,3.61c10.96,3.84,8.81,18.35,7.3,27.59l3.63,1.55.98-2.5,2.61,1.04.02-8.73,6.4,1.58,1.59-3.04,3.63,3.65-2.89,3.6c1.78-.89,4.41,2.93,4.33,3.67-.18,1.76-4.66,1.16-4.34,3.61l2.91,4.37,4.36.02c-.88-6.16,5.13-7.09,2.93-14.55,2.41-.59.56,2.41,2.48,2.93,1.42.38,3.26-.15,4.79-.03l-.03,4.35-5.8-2.9c-.17,3.52-.94,8.98,4.35,8.73l1.45-4.37c-.92,7.12-.01,9.01,4.28,13.95l-2.67,2.66c.08,4.75,3.86,6.98,3.99,7.4.27.88-1.84,7.08.26,9.43l2.11-8.85,3.68.13.02-10.19c6.49-.64-.86,8.87,6.54,10.18l.72-8.71c5.51-.09,3.08,7.84,10.17,4.37l.02,14.53c2.13-.01,2.29-6.49,2.36-8.09.08-1.98-.14-3.15-.92-4.98l5.72.09.1,10.07c7.71.27.08-9.82,5.1-13.07,1.19,3.69,1.03,8.89,6.54,8.71l-4.34-4.38.09-2.8c3.82.64,4.18-12.48-.15-12.45l.04-2.15c8.84-1.29,0-14.17,4.35-20.38-5.8-.33-4.99,7.78-5.59,11.07-.5,2.73.84,4.11-3.14,3.45l-.24-19.39-2.1-2.35-4.92,1.4-1.43-12.23,2.8-1.49c-3.73-7.69-3.56-18.23.83-25.54l3.59,3.65,2.89-1.46-1.4-8.02,2.91,4.36c6.54-.31,5.76-8.44,4.36-13.08l7.27,2.89.02-7.26c6.32-1.5.17,8.89,4.34,10.16l2.22-21.79,3.62,18.9v-37.82c-4.94,3.35-1.19,11.45-1.46,15.99-4.71.47-2.16-.61-2.35-2.68-.6-6.39-1.56-12.75-.54-19.13l4.34,2.9-.69-5.79-3.65,1.43v-13.08s4.34,5.8,4.34,5.8l1.48-45.08c2.34-.34,1.65,2.74,2.06,4.38.6,2.42,1.33,6.21.84,8.69l3.78-2.16.6-8c3.5-3.39,4.01,8.47,2.89,10.16l3.95-2.12-1.03-5.14,5.79,4.36c-.56-6.5.51-12.59,7.39-13.92l-.09-6.45,4.34,1.45-.09-7.19-4.25-1.52c5.78-1.12,7.77-5.59,14.53-1.46-1.7-6.05,4.32-4.39,5.55-6.12,1.82-2.55.38-11.17,4.71-12.17l-1.52-4.98,4.36-1.49,2.91,4.37-1.45-5.8h4.36s-1.45,4.34-1.45,4.34l5.81-1.44c1.52,1.82-3.1,14.5,2.92,13.09ZM286.63,189.12h2.89v4.35h-2.89v-4.35ZM278.62,167.32l3.64,4.32c-4.17.56-7.62-1.57-3.64-4.32ZM277.17,90.21l.7,8.71c-4.84,1.55-2.38-7.78-.7-8.71ZM253.14,80.02c-3.1-.7-2.35-4.69-2.88-7.27,3.31.87,3.03,4.56,2.88,7.27ZM225.52,168.76l5.81,4.39-5.82,2.86v-7.25ZM215.34,75.65c3.31.87,3.03,4.56,2.88,7.27-3.31-.87-3.03-4.56-2.88-7.27ZM186.22,112.03c.61,2.34-1.86.84-2.49,1.8-1.05,1.6.74,4.43-1.85,3.99l-1.44-3.64,5.78-2.16ZM17.45,424.77l-4.36-.02v-7.26s4.36-.01,4.36-.01v7.29ZM13.09,414.57c.73-4.42.02-8.07,1.24-12.62.68-2.53-.99-4.06,3.12-3.37v15.98s-4.36,0-4.36,0ZM23.29,312.77l1.42,14.53c-1.64.03-3.76-8.91-3.7-9.41.18-1.64,2.4-3.17,2.28-5.12ZM24,382.55c-.96,0-3.01-3.49-2.17-4.33,2.2-2.2,6.2,4.33,2.17,4.33ZM49.46,385.48h-5.81v-2.89h5.81v2.89ZM103.25,171.14c-.45,1.9.27,4.31.04,6.34l-5.82-.03,1.63-8.55,7.09-.15c.62,2.4-2.53.65-2.95,2.38ZM119.32,224.02c-.7-3.61-3.65-6.6,1.41-5.81l1.47,5.8h-2.88ZM128.02,157.11h-1.43l-1.47-8.71h2.9s0,8.71,0,8.71ZM167.31,189.1c-4.59.96-3.22-7.76-4.12-11.02l4.12,11.02ZM135.31,146.95h4.37l-.72,5.8-3.64-5.8ZM174.58,530.95c-3.6,3.88-3.05-9.73-.71-10.18,2.16,2.89,1.04,6.92.71,10.18ZM174.57,381.12c-4.78-2.36-.13-10.01-2.91-14.53l-1.35,13.63-6.65,3.81c-.45-4.16,4.79-9.19,0-13.06l-2.92,5.78-1.45-2.92-1.47,2.94c-3.15.93-1.67-2.16-2.84-2.62-.71-.28-5.03.37-6.59-.28-.14,2.87,1.17,5.16-2.92,4.34l-2.88-13.82-2.96,5.09c-7.69-.49-2.44-11.26-1.43-15.98l.07,6.57,7.19,3.59c-3.09-6.28,1.77-12.38,1.47-18.89l4.33,8.72c.55-6.28,5.49-6.34,8.17-10.25l6.38,4.43-1.44-5.8,5.69.18c.41,2.8-1.05,4.98,3.03,4.16l.02-7.27c4.27-5.92,1.61,22.58,1.58,23.84-.12,5.23,2.55,12.45-.16,18.34ZM197.15,561.49c-4.17-3.99-3.09-11.41,3.62-10.17l-3.62,10.17ZM235.71,445.83v-2.15s2.87,0,2.87,0l1.46,5.81-4.34-3.66ZM238.61,484.39v-7.26s1.43,0,1.43,0l1.47,7.25h-2.9ZM289.51,622.59l-5.8-3.63,2.18-2.16c1.78,1.86,4.21,3.04,3.62,5.79ZM301.15,672.03h-1.42s0-7.26,0-7.26h1.42c.94,2.69.94,4.57,0,7.26ZM309.89,699.67c-6.67.57-3.12-7.98-4.73-9.89-7.79-2.14,1.11-4.69,3.23-1.62.61.88-.96,3.96-.66,5.88.27,1.75,2.91,3.14,2.16,5.63ZM327.37,586.22l1.46-7.26h1.42c.22,2.72.41,6.39-2.88,7.26ZM359.05,773.64c-.26,2.04.29,4.01-2.58,4.59l.87-7.2-3.05-2.98c-3.76.69,1.29,12.79-5.11,11.62l1.47-23.26,5.8,1.46.73-5.82c2.79,4.18,2.54,16.44,1.87,21.59ZM362.29,781.15h4.34s-1.42,8.71-1.42,8.71l-4.38-4.34,1.46-4.37ZM359.38,625.5c3.1.53,1.65,3.52,2.89,5.8-4.92-.04-4-1.98-2.89-5.8Z"/>
      <path class="cls-1" d="M717.27,290.94h-.01s.01.01.02.02v-.02Z"/>
      <path class="cls-1" d="M849.13,346.3c.15.45.33.9.55,1.35l-.55-1.35Z"/>
      <path class="cls-1" d="M717.28,290.96l2.9,5.78c.85-2.29-1.04-4.29-2.9-5.78Z"/>
      <path class="cls-1" d="M375.38,94.57c.5,3.05-.37,4.04-2.93,5.2l.27,3.31,4.1,3.11-10.15,2.2,6.9,4.34-1.13,3.65-2.89-2.22c-3.89-1.59-2.73,9.42-.73,9.47l.74-7.24c6.05,3.05,2.7,5.75,2.13,9.42-.22,1.43,1.38,3.36.54,4.81-.41.7-5.72,2.74-5.58,6.12l5.81-2.9.03,2.9,2.88-2.89.74,5.81c2.24-3.3,3.62-7.89,5.82-1.45l-.71-5.8,3.58.05,2.26,4.29h2.88l1.44-2.89,2.91,5.81,1.48-15.99,5.8,2.9,1.49-13.08c4.37-.45,1.21,17.49,5.78,13.08l1.49-10.18,4.34,4.36.02-10.18,5.81.02.71,4.36,1.46-4.37c4.16,2.27-2.05,6.76,3.64,5.8v-13.08s1.47,4.35,1.47,4.35l7.28-.68v-6.58c3.41,1.87,2.02,5.71,7.25,4.37l1.57-11.54,7.17-.11-5.81-4.33,4.09-1.15c1.86,7.19,3.15.43,3.48.23.88-.54,3.68,1.3,4.31-3.28l5.57,1.27-1.46-26.17-2.15,11.61c-3.59-1.98-7.68-2.24-8.04-7.25h-1.41c.68,4.52-3.93,2.73-7.3,2.91l-.88-6.03-11.6-2.64-3.52,2.84-.02-5.82c-5.31,3.88-11.01,5.97-17.24,2.7l-1.64-7.06-1.48,14.53c-4.81.89-2.56-6.05-8.72-4.35l-1.45,7.26-1.48-13.08c-2.8,1.65-2.45,9.03-1.44,11.62l-2.92-4.35c-5.89,2.83-1.4,13.18-2.8,18.02l-5.32,2.27c-.54,4.42.43,8.81-1.31,13.18-1.85,4.66-1.81-3.5-5.1-1.47Z"/>
      <path class="cls-1" d="M55.64,613.48c-.55,3.66-1.59,10.92-1.63,14.28-.04,2.89,3.6,7.58,1.26,12.29l-4.35-.02-.02-37.8-2.31,14.08c1.06,4.2,1.07,7.33-3.48,9.19l.02-9.29,2.89-1.62-2.93-1.45c6.6-4.89-2.45-7.47,2.94-13.07-6.45-2.55-2.58-3.91-3.05-8.61-.33-3.23-.99-14.41-1.43-15.95-.38-1.34-4.78-.13-1.38-6.73-4.42-.7-2.37,1.08-2.88,3.64-2.54,12.56-1.72,36.71-1.08,49.1.14,2.68.64,7.99,1.08,10.5,1.45,8.05,5.82-.58,10.14-.7l.02,18.9c5.57,1.42-.64-7.05,5.81-5.8-.26,6.94.74,13.87.85,20.82.03,1.9-2.82,2.82,2.06,2.43v-58.17c-1.89-.4-2.35,2.71-2.54,3.98Z"/>
      <path class="cls-1" d="M339.01,351.3l-5.74,3.09-.09,17.98,4.36.02.17-8.65,4.3-.89-1.53-31.92h-2.94c1.01-5.52-1.71-20.19.78-24.03.6-.93,2.84-1.07,3.25-1.74,1.24-1.99.4-12.63-.38-15.69-3.48,2.05-.32,10.55-1.2,12.42-.92,1.97-3.72,1.51-4.68,4.93-.45,1.62-.7,16.61-.79,19.75-.22,7.64,3.17,15.03-1.35,22.51l5.84,2.2ZM337.55,360.75v-7.26s1.43,0,1.43,0l1.47,7.25h-2.89ZM340.21,342.46l-2.65-9.33c3.31.94,2.05,6.32,2.65,9.33Z"/>
      <path class="cls-1" d="M2.89,454.58c3.65-.34,3.92-8.33,3.9-11.93-.02-4.05.07-7.86.05-11.49-.02-3.42-1.72-7.08-1.02-10.78H1.46c-.75,4.13.85,8.25.9,12.13.05,4.08-3.84,10.27,2.02,11.9l-4.38.73,1.46,39.26,5.5-2.34c-2-8.16,3.24-22.35-4.08-27.47Z"/>
      <path class="cls-1" d="M771.12,400.75l2.16,2.91-.13,98.78,2.32,12.5,1.18-60.36-1.18-66.19c-5.53,2.75,1.89,11.15-4.35,12.35Z"/>
      <path class="cls-1" d="M116.41,715.69l-.03,10.18c-7.1-2.92-1.17-11.04-4.37-17.46l-5.81,1.48,4.38,3.63-.03,3.62-4.34-2.89v8.71l4.34-2.89c3.11,7.53-2.58,2.2-4.34,8l3.65-.71.71,2.88-4.37.73c4.06,2.26,5.21,2.91,4.37,8.01l5.81-4.36.03,15.9,4.33,1.55,1.43-29.71-4.31-.82-1.45-5.83Z"/>
      <path class="cls-1" d="M270.6,286.56l-2.88,1.48c.09-1.35-.43-2.86.31-4.12,1.38-2.36,10.15-3.68-1.77-8.98l2.91,5.08c-7.45,3-3.22,10.63-3.25,16.12-.06,8.59-1.07,17.36-.78,26.05.15,4.66,2.85,8.97-.34,13.84,4.06.61,2.72-.69,2.91-3.6.27-4.1-.21-8.29.01-12.38l2.88,4.35,1.43-5.1-4.31-.71c-.53-3.9-.1-3.7,2.89-5.08-6.41-5.45-.6-4.52-.07-6.14.72-2.16-.21-5.26,1.52-7.67l-4.35,1.44v-4.37s5.81-.75,5.81-.75l-2.93-9.44Z"/>
      <path class="cls-1" d="M303.74,853.13l-4.02-4.36,4.34.73-2.9-2.92,2.89-3.62-4.33-2.2,2.75-1.55-1.31-20.24c-6.91-.29.84,10.14-4.33,13.05,6.47-.6-.75,9.12-1.06,12.6-.17,1.99,3.26,15.84,2.5,16.52h-4.38c-2.48,2.38,10.17,9.8,6.01,3.13l4.17-2.4.04-2.92-3.01-1.45,2.63-4.36Z"/>
      <path class="cls-1" d="M337.55,397.12l-.02-23.28h-4.35s2.9,5.11,2.9,5.11l-2.69,1.36-.21,26.14,2.9,1.57-4.37,9.45,5.08,1.49.85-13.03,4.28-.81-4.43-1.45.06-5.09c6.27,4.17,7.05-5.48,0-1.46Z"/>
      <path class="cls-1" d="M120.9,594.33c.2-1.86-.72-15.95-1.62-16.83-2.32-2.27-2.45-.23-2.68,2.03-.33,3.23-.87,8.7,2.73,8.88l-.04,3.65-2.89-1.48-.02,34.19,2.2-.4,1.44,4.06c.23-6.42,1.83-13.99,1.69-20.28-.12-5.34-3.84-8.66-3.93-11-.03-.92,2.81,0,3.11-2.81Z"/>
      <path class="cls-1" d="M110.57,573.13v33.46l4.23-12.48-2.84-1.35c4.92-9.49-1.76-21-4.3-31.26-1.39-.53-2.99-.75-4.35-1.45v4.37s2.86-1.45,2.86-1.45l1.51,5.06-4.37-.71-.04,3.64c5.51,1.61,1.87,11.4,4.41,16.72,4.95-2.2-4.74-15.36,2.89-14.54Z"/>
      <path class="cls-1" d="M110.6,564.39l2.86-2.17c-3.87-3.41-8.09-10.02-5.79-.73,1.37.52,3.33-.85,2.94,2.9Z"/>
      <path class="cls-1" d="M303.33,55.31l-.31-2.96-3.32-.7c5.61-2.25,5.02-7.93,2.84-13.02l2.99-1.52-4.37-2.93c-.64-3.26,2.08-1.83,2.46-2.47.28-.47-.09-4.43-.85-4.83l-5.96-.67c.94,6.24,2.78,16.41-1.46,21.1,5.27,1.73.47,7.83,7.98,8Z"/>
      <path class="cls-1" d="M93.24,467.71c.22-2.44-3.21-5.91-4.5-8.78l2.91-3.61-4.38.85v33.12s2.95,1.66,2.95,1.66c-4.83-.45-3.38,10.79-.75,10.88l3.75-19.39-4.47-3.14.02-2.15,2.88-.03c-5.29-6.35-1.19-3.45-.43-4.64.33-.52-.81-1.71-.52-2.26.3-.56,2.31.09,2.54-2.51Z"/>
      <path class="cls-1" d="M164.63,786.83l1.22-20.22-7.27,1.46,2.9,5.8-4.34-1.45c-2.25,6.76,3.92,5.67,5.14,9.43,1.59,4.89-1.53,14.15.69,19.66,3.65-2.18,3.01-9.11,1.36-12.28l2.98-.82-2.67-1.57Z"/>
      <path class="cls-1" d="M903.51,301.13c1.08,5.96.36,12.17.51,18.12.07,2.58,1.62,4.97,1.71,7.29.2,5.09-1.66,10.65-.75,17.51.26,1.96.98,4.66,2.88,2.16l-1.45-45.09c-.96-.07-1.95.02-2.91,0Z"/>
      <path class="cls-1" d="M915.12,298.94c-.03-1.3-9.46-3.06-1.42-5.8l-2.93-5.1-1.45,5.81c-6.36-3.86,4.24-21.53-5.8-23.26,4.29,10.57-1.62,20.73,2.9,30.54,3.48.23,5.66,2.01,8.7-2.18Z"/>
      <path class="cls-1" d="M750.73,484.41l-1.45,8.71-4.34-7.27v37.81c1.98-.25,2.33-6.77,2.5-8.51.37-3.7-.79-8.72.49-12.2.45-1.23,2.18-1.16,2.33-1.51,1.8-3.98-.28-12.34.46-17.04Z"/>
      <path class="cls-1" d="M593.62,42.19c3.8.64,2.59-.58,3.31-3.14,2.31-8.25-.9-16.06-.42-24.49-4.44-.81-2.22,1.37-3.03,3.45-3.66,9.33,1.56,14.12.14,24.18Z"/>
      <path class="cls-1" d="M128.21,742.5l5.62,21.18c2.19-10.19,1.75-20.47-.7-30.53-3.79,2.91-.04,8.16-4.92,9.35Z"/>
      <path class="cls-1" d="M551.01,34.15c.53-4.77.99-10.92-1.05-15.21l5.8,4.34v-13.08l-1.45,8.72-4.35-1.48c1.86-4.3,3.31-12.33-1.44-14.52v39.27c2.31-.19,2.28-6.16,2.49-8.04Z"/>
      <path class="cls-1" d="M499.02,479.53c.33-1.5,4.32.01,2.92-3.85l-4.35,1.44c.25-3.17,3.83-18.28-2.87-12.38l1.51,26.14-4.46,2.23c7.24-1.72,2.35,5.39,7.25,7.27l.75-2.56,2.17,1.13,1.47-10.18-4.35,5.8c.62-4.54-.94-10.88-.04-15.05Z"/>
      <path class="cls-1" d="M596.51,832.05l-2.97,6.46c1.89,15.34-1.84,33.16.07,48.11.28,2.19.53,3.74,2.91,2.14-.35-18.92-.92-37.79-.01-56.71Z"/>
      <path class="cls-1" d="M195.38,795.35c-.59,4.03-.48,25.27.17,28.45.3,1.47.2,4.23,2.31,3.88v-28.36c0-2.36.87-5.25-.02-7.99-1.98-.37-2.27,2.66-2.47,4.02Z"/>
      <path class="cls-1" d="M93.1,698.24c-1.44-.08-2.91.08-4.36,0-1.34,5.54-4.29,10.85.73,15.97,4.17-2.55-.41-4.13-.23-6.47.15-1.95,4.65-6.23,3.86-9.49Z"/>
      <path class="cls-1" d="M89.05,685.58c-.21-1.81,2-2.99,1.98-4.11-.02-1.29-2.72-3.63-.84-6.51l-5.8,9.52,2.97,1.46-1.52,12.29c.96.08,1.94-.07,2.9,0,.92-3.83,2.49-4.78,2.56-5.08.85-3.58-2.08-6-2.26-7.57Z"/>
      <path class="cls-1" d="M1.46,414.57c6.69.49,3.14-8.48,3.33-11.24.2-2.84,2.99-6.11,1.02-10.58l-4.35.02,2.92,3.63-2.96,1.66.04,16.51Z"/>
      <path class="cls-1" d="M71.3,659.67l-4.38-15.26v26.18l2.9-1.48,1.45,4.38v-11.64c-4.98,3.58-4.05-4.48.03-2.18Z"/>
      <path class="cls-1" d="M271.23,261.2c-.63-.59-.88-2.31-1.31-2.27l-3.77,3.57c-3.42,14.1,11.12,18.04,4.39,3l3.02-1.48c.7-2.85-1.29-1.85-2.32-2.82Z"/>
      <path class="cls-1" d="M786.42,362.21l-4.97.98c1.01,1.89-.69,14.99,2.02,15,4.84.02,3.3-6.91,4.93-9.54l-2.43-.9.44-5.54Z"/>
      <path class="cls-1" d="M100.4,697.51l-2.58-1.01c-1.81-2.09,3.1-7.3-1.79-8.45v34.9l4.35-5.07c-4.26-3.82-3.34-11.24-.03-15.25l-2.87-.05-.03-2.17,2.85-.78.09-2.13Z"/>
      <path class="cls-1" d="M257.65,351.18l1.34-10.78,2.88,4.35v-7.26s-2.17,1.17-2.17,1.17l-.74-2.6c-2.24-1.94-4.79,4.61-5,5.86-.34,1.99,3.22,6.03-.81,10.1l4.49-.84Z"/>
      <path class="cls-1" d="M97.88,510.28c-1.15-1.97-.19-4.76-.41-6.97-2.26-.28-2.04,5.04-2.07,6.54-.21,10.63,1.44,21.95.65,32.72,2.22-.48,2.02-7.43,2.08-9.45.21-6.31-.55-13.91-.66-20.36,7.35.59.59-2.18.41-2.49Z"/>
      <path class="cls-1" d="M100.37,475.7c-.85.15-1.65-.05-2.27-.66-1.03-1.01.05-2.78-2.06-2.27v29.08s4.36-8.03,4.36-8.03l-2.96-1.41v-2.94s2.97-1.44,2.97-1.44l-3-1.67v-8.29s2.96-2.37,2.96-2.37Z"/>
      <path class="cls-1" d="M840.95,347.65c.63-.43-.65-14.04-5.1-13.04-3.08,2.21-2.45,6.1-1.98,9.28,1.39.45,5.97,4.52,7.08,3.76Z"/>
      <path class="cls-1" d="M746.38,475.66l1.45-7.25c-7.47.15-1.31,11.74-2.89,15.99l5.78-2.93.02-2.89-2.9.73.04-2.14,5.78-2.96c-1.83-5.66-5.3,3.51-7.26,1.46Z"/>
      <path class="cls-1" d="M574.69,29.09l-2.96-9.43,2.96-1.46-3.53-2.06.62-4.48c-4.09-.61-2.69.71-2.9,3.6-.39,5.3-1.29,13.51,5.81,13.83Z"/>
      <path class="cls-1" d="M768.2,413.14c-4.06-.61-2.72.69-2.91,3.6-.3,4.57.21,9.26,0,13.84l2.88-.69,1.47-9.48,1.45,10.17.11-12.29c-.42-2.24-6.92,1.91-3.01-5.15Z"/>
      <path class="cls-1" d="M765.29,458.22v26.18c1.99.41,1.98-2.23,2.2-3.62.84-5.35,2.05-19.08-2.2-22.57Z"/>
      <path class="cls-1" d="M408.96,362.94l2.77-3.61c-.76-.01-2.14.11-2.57-.36-.74-.82,1.89-6.86-1.77-6.93v17.45s4.34-1.46,4.34-1.46c.76,2.67.39,6.89,4.37,5.82l-1.47-4.34,4.37-1.45c-4.15-.02-7.65-1.78-10.05-5.11Z"/>
      <path class="cls-1" d="M871.52,353.49c-1.67,4.22,2.54,4.23,2.81,5.28.42,1.65-1.44,9.41,2.98,10.7l1.48-13.06c-1.57-.79-4.52-.03-5.57-.48-.63-.28.63-3.09-1.7-2.44Z"/>
      <path class="cls-1" d="M645.97,228.38c4.13-6.71.95-14.41,2.92-21.81-7.23,1.71-2.84,4.43-3.07,9.51-.15,3.27-3.37,10.56.15,12.29Z"/>
      <path class="cls-1" d="M311.35,791.34l-4.36-.02v18.91c4.39,1.04,1.81-.85,2.06-2.38.88-5.47.69-11.19,2.3-16.5Z"/>
      <path class="cls-1" d="M74.2,672.06l2.82,2.06c-3.46,6.18-1.48,13.12-1.36,19.74,2.17.14,2.62-5.3,2.7-6.72.26-4.49-1.35-10.13.19-15.09h-4.35Z"/>
      <path class="cls-1" d="M795.84,394.95l-4.35.74,2.9,2.88-2.9,1.45c6.3-.75-1.54,10.89,4.33,13.1l1.28-6.41-.56-16.84-.71,5.09Z"/>
      <path class="cls-1" d="M900.59,296.75l-2.88-4.38c-.64-2.36,2.03-.91,2.52-1.69,1.15-1.84.88-11.95-2.5-12.81l-2.93,4.32c2.97-.25,3.98,2.4,4.32,5.02l-4.33,2.3,5.8,7.24Z"/>
      <path class="cls-1" d="M142.6,746.23l-.33,8.55-2.61.91c2.85.01,3.57,3.78,2.61,5.86-.51,1.11-2.42.48-2.55.7-2.03,3.22,2.57,2.61,2.9,3.83.82,3.07-2.48,10.36,2.88,9.23-.49-3.63-2.13-7.2-2.16-10.91-.04-4.55,4.43-14.73-.73-18.17Z"/>
      <path class="cls-1" d="M551.37,857.48c-.05-3.69-1.26-7.66-1.47-11.57-.17-3.27,2.97-10.27-1.4-12.39v26.18c2.96.1,2.91.72,2.87-2.22Z"/>
      <path class="cls-1" d="M596.39,53.24c-.15-1.4-.63-5.47-2.76-5.21-.92,5.92.24,11.69.48,17.56.1,2.42-2.12,3.21,2.41,2.79-.2-5.01.41-10.13-.13-15.14Z"/>
      <path class="cls-1" d="M499,534.76l2.94-2.34-5.79-2.93v13.1s7.26-.02,7.26-.02c-2.15-3.33-5.89-2.39-4.4-7.81Z"/>
      <path class="cls-1" d="M539.77,17.46c-.1-4.1.18-8.26,0-12.37-.07-1.76,1.1-5.41-1.44-5.07l-.02,11.63-4.37-.78-1.43,3.7c5.07-2.8,2.37,3.86,7.25,2.9Z"/>
      <path class="cls-1" d="M823.16,347.37c-.17-1.29-.65-4.44-2.57-4.06l-.93,9.25,3.81,11.1c-.71-4.99.32-11.57-.31-16.29Z"/>
      <polygon class="cls-1" points="210.97 818.97 213.86 817.49 214.61 829.14 215.32 810.22 210.96 810.24 210.97 818.97"/>
      <path class="cls-1" d="M272.06,834.97l-4.34,1.47-1.45-4.37c-.56,4.55-2.44,11.59,4.36,10.19.31.23-3.84,7.13-.03,7.25l2.92-4.33-2.67-.69,1.23-9.5Z"/>
      <path class="cls-1" d="M369.55,24.03c.17-4.11-.11-8.27,0-12.37-1.84-2.42-2.65.18-2.92,2.16-.69,5.23,1.29,10.17,1.48,15.28,2.54.34,1.37-3.3,1.44-5.07Z"/>
      <polygon class="cls-1" points="411.75 417.5 413.21 421.85 408.09 421.85 408.82 416.03 406.11 418.46 408.11 433.48 411.02 423.31 411.74 429.11 416.1 429.12 414.52 422.72 417.56 421.13 411.75 417.5"/>
      <path class="cls-1" d="M499.03,231.31c-4.06-.6-2.71.7-2.9,3.61-.33,5.05.22,10.24.01,15.29,4.36-2.22,1.59-8.93,1.59-12.2,0-2.07,1.69-4.39,1.3-6.7Z"/>
      <path class="cls-1" d="M635.67,228.24l-.59-12.93c-5.44,3.52-1.82,6.06-.71,10.88l-4.38,1.47,5.68.58Z"/>
      <path class="cls-1" d="M180.43,797.13l-1.48-10.16c-3.98-.62-2.82.76-2.96,3.72-.21,4.52,2.31,8.34,7.32,7.9v-5.8s-2.88,4.35-2.88,4.35Z"/>
      <path class="cls-1" d="M551.03,53.5c0-1.06-.54-5.91-2.52-5.48v20.36l2.88-.7c-3.31-4.44-.32-9.44-.36-14.19Z"/>
      <polygon class="cls-1" points="728.93 349.11 733.05 345.98 728.93 334.58 728.93 349.11"/>
      <path class="cls-1" d="M765.31,455.31c4.71-2.91,1.22-13.95,1.42-18.9-2.54-.34-1.37,3.31-1.44,5.07-.18,4.6.11,9.25.01,13.83Z"/>
      <path class="cls-1" d="M573.24,459.68h-4.36c1.01,4.18,2.53,7.58-.02,11.61l5.83,1.45c-3.41-4.15-2.87-8.14-1.46-13.07Z"/>
      <path class="cls-1" d="M858.39,397.12c.17-2.02.55-3.95.6-5.99.04-1.42.08-8.56-2.03-8.55-1.02,3.92-3.06,12.06,1.42,14.53Z"/>
      <path class="cls-1" d="M565.94,11.66h-2.89s1.47,14.53,1.47,14.53c4.34-.97,2.8-13.36,1.42-14.53Z"/>
      <path class="cls-1" d="M548.51,759.31c.86,1.06,1.98,1.3,2.47-1.4.57-3.17-.75-8.13.43-11.68-5.73-1.06-1.83,9.76-2.9,13.08Z"/>
      <path class="cls-1" d="M596.51,682.22l-.71-13.08c-3.87,1.12-2.68,17.64.71,13.08Z"/>
      <path class="cls-1" d="M867.12,240.02l.6-5.99-2.02-11.45c.64,3.22-1.18,6.56-1.17,9.45,0,1.34.52,8,2.59,7.99Z"/>
      <polygon class="cls-1" points="75.78 665.36 72.83 666.29 72.73 668.39 76.39 670.58 78.56 658.97 74.2 658.96 75.78 665.36"/>
      <path class="cls-1" d="M785.68,439.29l1.44-8.7c-11.2-.76-4.15,3.26-1.44,8.7Z"/>
      <polygon class="cls-1" points="359.37 882.96 361.45 867.69 359.37 861.14 359.37 882.96"/>
      <path class="cls-1" d="M1.47,494.58v10.18s5.81-1.47,5.81-1.47c-1.4-3.14-2.11-7.36-5.81-8.71Z"/>
      <path class="cls-1" d="M496.14,513.48l5.81-4.39-3.54-2.75.63-4.48c-5.68-1.05-1.89,8.82-2.89,11.62Z"/>
      <path class="cls-1" d="M787.11,353.49c-2.12-.1-3.86-.45-5.12,1.41l-.69,4.39h5.8v-5.8Z"/>
      <path class="cls-1" d="M663.44,621.14l-4.35-1.45c4.06,8.88,4.71,2.97,7.2-.5.97-1.35,3.5-.16,2.98-2.41l-5.82,4.36Z"/>
      <path class="cls-1" d="M867.12,356.38c-.11-4.06,2.49-13.71-1.42-15.99-.44,3.54-.95,8.34-.57,11.8.17,1.51-.18,4.58,1.99,4.18Z"/>
      <path class="cls-1" d="M734.74,574.57h4.36l-2.89-15.98c-1.38,5.4,1.1,11-1.47,15.98Z"/>
      <path class="cls-1" d="M603.81,589.14l-2.89,9.45,4.33,2.16c-3.31-5.43.58-3.84,1.08-4.67.82-1.37-.06-6.93-2.51-6.94Z"/>
      <path class="cls-1" d="M501.93,519.3v-4.35s-5.8-.01-5.8-.01v11.64c5.57,1.47-.15-7.99,1.46-10.17l4.34,2.89Z"/>
      <path class="cls-1" d="M617.58,31.29c-.65-.91-.93-3.67-2.14-1.42,1.42,5.6-4.62,2.94-5.82,6.5h10.16c1.14-4.04-1.15-3.59-2.21-5.07Z"/>
      <path class="cls-1" d="M596.51,664.77c-1.66-4.15,2.17-10.95-2.88-13.09,1.73,4.26-2.47,10.78,2.88,13.09Z"/>
      <path class="cls-1" d="M339.01,308.39c2.55,4.52-1.77,12.24,2.88,14.54-.61-4.5,2.2-12.05-2.88-14.54Z"/>
      <rect class="cls-1" x="347.73" y="240.03" width="1.45" height="20.36"/>
      <path class="cls-1" d="M907.87,347.67c-6.57-.13-3.11,6.8-1.43,10.16l1.43-10.16Z"/>
      <polygon class="cls-1" points="348.93 269.37 344.83 267.66 347.74 274.2 344.83 273.46 347.75 279.29 348.93 269.37"/>
      <path class="cls-1" d="M781.3,452.41c.82,4.57-.95,5.98,4.34,7.26,1.79-4.82,2.13-7.78-4.34-7.26Z"/>
      <path class="cls-1" d="M909.35,322.94v8.71s1.43-2.89,1.43-2.89l5.82,1.44.02-2.89c-4.93,1.05-4.33-3-7.26-4.37Z"/>
      <path class="cls-1" d="M702.72,599.33c-6.49-1.61-5.05,4.86-4.34,8.71l4.35-1.47-2.9-5.09,2.89-2.15Z"/>
      <path class="cls-1" d="M573.01,445.7l-1.24-6.4c-5-1.3-1.23,6.04-2.89,8.72l4.13-2.32Z"/>
      <polygon class="cls-1" points="840.95 356.38 839.48 350.57 834.32 352.01 835.14 357.84 836.6 353.49 840.95 356.38"/>
      <path class="cls-1" d="M394.27,20.37c-.08-4.1.17-8.26.01-12.37-.07-1.76,1.09-5.41-1.44-5.06-1.04,4.02-.34,8.26.03,12.32.17,1.82-1.26,5.42,1.39,5.12Z"/>
      <path class="cls-1" d="M414.64,432.03c-5.01-1.25-.8,7.44-2.89,10.18,5.12,1.88,3.3-9.76,2.89-10.18Z"/>
      <path class="cls-1" d="M593.62,829.14l2.89-10.17c-5.4-1.21-2.08,7.1-2.89,10.17Z"/>
      <path class="cls-1" d="M797.3,414.59c-5.92-.81-2.44,7.14-4.36,10.16,5.49.98,2.69-7.33,4.36-10.16Z"/>
      <polygon class="cls-1" points="568.88 456.76 571.77 456.76 573.06 451.86 571.04 449.5 568.88 449.5 568.88 456.76"/>
      <path class="cls-1" d="M408.82,14.55c.25-2.02.6-3.94.6-5.99,0-1.58.12-8.5-2.02-8.54.91,4.12-2.87,11.79,1.42,14.53Z"/>
      <path class="cls-1" d="M170.24,778.24c1.12,2.95-2.93,13.98,2.89,13.07-2.58-3.84,1.26-11.08-2.89-13.07Z"/>
      <polygon class="cls-1" points="215.31 679.32 213.89 669.14 213.86 676.41 209.54 677.14 215.31 679.32"/>
      <path class="cls-1" d="M900.59,320.03c-6.29,2.55-1.72,4.83-2.61,9.22l2.61-9.22Z"/>
      <path class="cls-1" d="M459.77,98.92c3.25-1.58,2.65-8.6,2.89-11.62-4.21-1-1.94.18-2.28,2.12-.54,3.09-.7,6.36-.6,9.51Z"/>
      <path class="cls-1" d="M414.64,397.12c-2.7-5.69,3.45-11.96-.72-15.96-4.57,4.06,1.23,10.59-2.15,15.27l2.87.69Z"/>
      <path class="cls-1" d="M887.49,286.56c.29-2.01.56-3.95.6-5.99.04-1.79.09-9.48-2.02-9.99.07,3.62-.17,7.29-.01,10.92.07,1.76-1.1,5.41,1.44,5.07Z"/>
      <path class="cls-1" d="M744.94,533.86l1.42,13.08c-.03-3.66,3.1-10.92-1.42-13.08Z"/>
      <path class="cls-1" d="M301.8,805.48c-1.03-2.02.31-4.38-4.98-5.42v7.27s5.8.74,5.8.74l-4.35,2.16,5.8,1.47c1.75-4.89-1.92-5.52-2.27-6.21Z"/>
      <path class="cls-1" d="M176.06,775.33v10.18s4.34-2.93,4.34-2.93l-2.89,1.48c-.66-.97,2.67-8.32-1.45-8.73Z"/>
      <path class="cls-1" d="M408.82,453.85l-.71-14.53c-2.86,1.74-1.02,3.16-.97,5.18.05,2.13-.73,8.93,1.68,9.35Z"/>
      <path class="cls-1" d="M301.16,65.46l-.72-8.69c-2.13.14-4.64,10.45.72,8.69Z"/>
      <path class="cls-1" d="M286.62,68.37c-1.32-3.31-5.48-4.56-8.72-4.34-1.1,4.48,6.28,3.75,8.72,4.34Z"/>
      <path class="cls-1" d="M414.64,400.04c-5.43-1.22-.95,5.84-2.9,8.71,5.2,1.21,2.23-5.7,2.9-8.71Z"/>
      <path class="cls-1" d="M766.01,311.31l-.71,13.08c3.3-1.01,2.55-10.88.71-13.08Z"/>
      <polygon class="cls-1" points="813.32 309.85 813.32 320.02 817.63 317.06 813.32 309.85"/>
      <path class="cls-1" d="M605.25,509.11c-1.34-2.85,1.09-9.04-2.89-10.16.19,1.54-1.51,13.27,2.89,10.16Z"/>
      <path class="cls-1" d="M801.65,321.48c-.08-3.61.17-7.29.01-10.92-.08-1.77,1.1-5.41-1.44-5.07.08,3.62-.17,7.29-.01,10.92.08,1.77-1.1,5.41,1.44,5.07Z"/>
      <path class="cls-1" d="M744.94,549.87l1.43,11.62c-.28-3.38,3.07-9.96-1.43-11.62Z"/>
      <path class="cls-1" d="M877.31,405.85c1.22-3.78,1.93-5.76-2.89-5.82l-1.46,5.81h4.35Z"/>
      <path class="cls-1" d="M765.41,368.45c-.03-.15-.06-.29-.1-.42l.1.42Z"/>
      <path class="cls-1" d="M768.2,379.65l-2.79-11.2c.58,3.25-2.64,12.21,2.79,11.2Z"/>
      <path class="cls-1" d="M496.85,558.59l-.71,8.72c3.99-1.42,3.92-6.32.71-8.72Z"/>
      <path class="cls-1" d="M413.92,456.79c-3.07.3-4.93,8.37.73,7.23-1.72-.81,2.75-7.57-.73-7.23Z"/>
      <path class="cls-1" d="M124.83,639.67l.28-2.53c-.28.75-.34,1.61-.28,2.53Z"/>
      <path class="cls-1" d="M123.68,650.23c3.85-1.58,1.41-6.59,1.15-10.56l-1.15,10.56Z"/>
      <polygon class="cls-1" points="688.91 656.04 689.63 648.76 685.27 648.79 688.91 656.04"/>
      <polygon class="cls-1" points="374.52 14.66 379.72 14.58 372.47 11.65 371.04 15.29 373.89 17.46 374.52 14.66"/>
      <polygon class="cls-1" points="865.7 369.48 868.59 359.32 864.53 362.59 865.7 369.48"/>
      <path class="cls-1" d="M593.62,683.68c-.04,3.2-.83,7.6,2.88,8.73.04-3.2.83-7.6-2.88-8.73Z"/>
      <path class="cls-1" d="M594.33,705.51l-.71,10.18c3.52-1.31,3.56-8.19.71-10.18Z"/>
      <rect class="cls-1" x="194.97" y="752.06" width="2.89" height="7.26"/>
      <polygon class="cls-1" points="347.71 285.1 347.53 284.96 344.83 289.48 347.71 285.1"/>
      <polygon class="cls-1" points="349.17 282.22 344.8 282.94 347.53 284.96 349.17 282.22"/>
      <path class="cls-1" d="M874.41,432.05l1.46,7.27c5.04,1.19,1.24-4.55,2.9-7.28h-4.37Z"/>
      <polygon class="cls-1" points="253.15 832.04 257.5 833.51 254.62 824.78 253.15 832.04"/>
      <polygon class="cls-1" points="368.11 861.16 366.65 869.87 369.54 869.86 369.53 861.15 368.11 861.16"/>
      <polygon class="cls-1" points="672.91 828.42 675 813.14 672.91 806.6 672.91 828.42"/>
      <polygon class="cls-1" points="681.66 806.61 680.2 815.32 683.09 815.32 683.08 806.6 681.66 806.61"/>
      <path class="cls-1" d="M874.42,391.31l1.46,7.26c1.66,1.71,5.05-8.64-1.46-7.26Z"/>
      <path class="cls-1" d="M723.11,528.04c3.72-1.12,2.92-5.53,2.88-8.72-3.71.97-1.97,5.62-2.88,8.72Z"/>
      <polygon class="cls-1" points="873.71 240.01 875.86 240.02 877.32 235.68 871.51 235.67 871.52 237.82 873.71 240.01"/>
      <path class="cls-1" d="M568.89,68.38v7.27s2.89,0,2.89,0c.21-2.77.4-6.38-2.89-7.27Z"/>
      <path class="cls-1" d="M459.77,882.96c3.31-.82,2.79-8.39.71-10.18l-.71,10.18Z"/>
      <path class="cls-1" d="M907.87,360.77c-2.99-3.43-4.6,6.21-2.89,7.26,2.42.36,3.15-6.96,2.89-7.26Z"/>
      <path class="cls-1" d="M133.84,629.85l-.71-8.71c-2.41.36-2.61,13.08.71,8.71Z"/>
      <polygon class="cls-1" points="615.44 632.76 619.07 634.19 621.24 632.02 621.25 629.87 615.44 629.87 615.44 632.76"/>
      <polygon class="cls-1" points="551.41 631.32 548.51 631.32 548.51 638.58 551.41 638.57 551.41 631.32"/>
      <path class="cls-1" d="M65.47,651.67l-2.79-11.2c.58,3.24-2.64,12.22,2.79,11.2Z"/>
      <path class="cls-1" d="M62.68,640.46c-.03-.15-.06-.29-.1-.41l.1.41Z"/>
      <path class="cls-1" d="M548.52,820.41c3.66-1.11,1.51-6,2.89-8.72-5.3-1.14-2.17,6.06-2.89,8.72Z"/>
      <polygon class="cls-1" points="349.17 27.64 347.74 20.39 344.83 21.83 344.83 26.21 347.56 24.97 349.17 27.64"/>
      <path class="cls-1" d="M302.62,24.73l-5.81-7.26c-.7,2.53,3.67,9.02,5.81,7.26Z"/>
      <path class="cls-1" d="M596.5,800.05v-8.72c-.84-1.83-5.65,7.68,0,8.72Z"/>
      <path class="cls-1" d="M389.91,10.2h-2.89v7.26c3.29-.88,3.11-4.49,2.89-7.26Z"/>
      <path class="cls-1" d="M549.72,681.15l.22-1.82c-.19.56-.24,1.18-.22,1.82Z"/>
      <path class="cls-1" d="M549.72,681.15l-1.2,9.81c3.99-1.45,1.32-6.16,1.2-9.81Z"/>
      <path class="cls-1" d="M21.81,289.49h-2.88s-1.47,5.8-1.47,5.8c3.67.36,4.91-2.32,4.35-5.8Z"/>
      <polygon class="cls-1" points="148.41 763.69 148.41 770.95 151.31 770.94 151.3 763.69 148.41 763.69"/>
      <polygon class="cls-1" points="794.39 696.76 797.29 696.77 797.29 689.51 794.39 689.51 794.39 696.76"/>
      <path class="cls-1" d="M194.97,743.33c-.24,2.77-.28,5.52,2.18,7.26l.71-7.26h-2.89Z"/>
      <path class="cls-1" d="M785.65,397.12l1.46-5.8c-2.2-1.68-9.69,5.89-1.46,5.8Z"/>
      <path class="cls-1" d="M123.68,724.42l1.42,11.62c.57-2.69,1.57-10.04-1.42-11.62Z"/>
      <polygon class="cls-1" points="899.02 304.84 896.25 305.5 899.88 308.38 900.59 301.13 899.02 304.84"/>
      <path class="cls-1" d="M549.95,722.96h-1.42s0,8.72,0,8.72c4.5-1.41,1.58-5.23,1.42-8.72Z"/>
      <path class="cls-1" d="M766.73,353.47c.31-2.85,2.73-7.41-1.42-8.72l1.42,8.72Z"/>
      <path class="cls-1" d="M787.11,384.05c-3.67-.38-4.92,2.31-4.35,5.8,4.63-1.4,3.51-1.81,4.35-5.8Z"/>
      <path class="cls-1" d="M774.04,683.69c.8,2.88-1.87,10.34,1.43,11.62-.8-2.87,1.87-10.34-1.43-11.62Z"/>
      <path class="cls-1" d="M887.49,289.49l-1.42,8.72c4.15-1.3,1.73-5.87,1.42-8.72Z"/>
      <path class="cls-1" d="M376.81,11.64l-1.59-2.12c.22.77-.03,2.24,1.59,2.12Z"/>
      <path class="cls-1" d="M374.91,9.1l-2.44-3.26.75,3.98c.92-.64,1.41-.81,1.69-.72Z"/>
      <path class="cls-1" d="M374.91,9.1l.32.42c-.06-.21-.15-.37-.32-.42Z"/>
      <path class="cls-1" d="M27.64,418.93v-5.79s-2.9,0-2.9,0c-1.33,3.76-1.83,5.81,2.9,5.79Z"/>
      <path class="cls-1" d="M142.59,672.04v7.27s2.89,0,2.89,0c-.77-2.67.3-6.59-2.89-7.26Z"/>
      <path class="cls-1" d="M360.81,21.83c-.8-2.88,1.87-10.34-1.43-11.62.8,2.87-1.87,10.34,1.43,11.62Z"/>
      <path class="cls-1" d="M144.02,670.59c0-2.43,2.3-8.04-1.42-8.72.48,3.21-2.9,7.48,1.42,8.72Z"/>
      <path class="cls-1" d="M205.14,663.3h5.82c-.98-1.1-1.29-4.2-1.47-4.35-2.42-1.99-3.51,2.28-4.35,4.35Z"/>
      <path class="cls-1" d="M341.89,277.84v-8.72h-1.42c-.16,3.49-3.07,7.31,1.42,8.72Z"/>
      <polygon class="cls-1" points="341.89 18.93 336.09 21.85 341.9 24.74 341.89 18.93"/>
      <path class="cls-1" d="M411.75,375.31v4.36s5.81-1.47,5.81-1.47c-.78-2.89-3.1-3.26-5.81-2.89Z"/>
      <path class="cls-1" d="M215.31,650.23h-1.42c-.16,3.49-3.07,7.31,1.42,8.72v-8.72Z"/>
      <path class="cls-1" d="M647.43,648.76l-.71-8.71c-2.15.24-2.54,12.93.71,8.71Z"/>
      <path class="cls-1" d="M250.24,826.22c-2.58-2.63.19-9.1-2.89-10.16.8,3.08-2.51,11.39,2.89,10.16Z"/>
      <polygon class="cls-1" points="792.93 442.2 797.29 437.86 791.46 438.58 792.93 442.2"/>
      <path class="cls-1" d="M887.49,269.11l.81-7.2-2.24-2.97c.74,2.45-1.8,9.44,1.43,10.18Z"/>
      <polygon class="cls-1" points="593.62 634.23 595.08 641.49 596.5 641.49 596.51 634.23 593.62 634.23"/>
      <path class="cls-1" d="M257.5,327.3c-.8-2.88,1.87-10.34-1.43-11.62.8,2.87-1.87,10.34,1.43,11.62Z"/>
      <path class="cls-1" d="M125.11,625.5c-3.22.74-.69,7.72-1.43,10.18,4.58-1.5.46-6.81,1.43-10.18Z"/>
      <rect class="cls-1" x="548.51" y="878.61" width="2.89" height="5.8"/>
      <polygon class="cls-1" points="865.7 241.49 865.69 248.75 868.58 248.75 867.12 241.49 865.7 241.49"/>
      <polygon class="cls-1" points="295.34 71.3 291.07 72.63 289.54 69.84 290.25 75.65 295.34 71.3"/>
      <path class="cls-1" d="M696.92,593.51v1.42s2.93,2.9,2.93,2.9c3.8.76,2.99-.85,2.88-4.33h-5.81Z"/>
      <path class="cls-1" d="M103.31,544.04c-.51.41-1.63,8.97,1.42,8.72-.42-3.41,2.86-7.54-1.42-8.72Z"/>
      <path class="cls-1" d="M497.56,222.56c.79-2.7,1.17-6.37-.7-8.71-2.43,1.08-1.73,8.43.7,8.71Z"/>
      <path class="cls-1" d="M774.04,519.32c.8,2.88-1.87,10.34,1.43,11.62-.8-2.88,1.87-10.34-1.43-11.62Z"/>
      <path class="cls-1" d="M771.09,340.4h-1.42s0,8.71,0,8.71h1.42c.51-3.1,1.11-5.67,0-8.71Z"/>
      <rect class="cls-1" x="548.52" y="896.06" width="1.42" height="8.71" transform="translate(-2.78 1.7) rotate(-.18)"/>
      <path class="cls-1" d="M548.52,877.14c3.46-.72,1.3-4.51,2.89-7.26h-2.9s0,7.26,0,7.26Z"/>
      <path class="cls-1" d="M244.44,834.95l5.81-2.92c-1.59-4.69-7.38-1.95-5.81,2.92Z"/>
      <path class="cls-1" d="M904.98,376.75h1.42c.87-3.15,2.68-5.94-1.42-7.27v7.27Z"/>
      <path class="cls-1" d="M408.82,379.67v-8.72h-1.43c.42,3.41-2.85,7.54,1.43,8.72Z"/>
      <rect class="cls-1" x="728.93" y="551.32" width="1.43" height="10.17"/>
      <path class="cls-1" d="M459.77,816.05v5.81s2.89,0,2.89,0c.38-2.71,0-5.03-2.89-5.81Z"/>
      <polygon class="cls-1" points="858.35 376.11 856.22 373.86 855.51 381.12 858.35 378.86 858.35 376.11"/>
      <path class="cls-1" d="M883.13,373.86h-1.43l-1.46,8.72c3.69-1.12,2.97-5.53,2.88-8.72Z"/>
      <polygon class="cls-1" points="644.57 234.92 646 238.56 648.89 238.56 646.72 232.76 644.57 234.92"/>
      <polygon class="cls-1" points="548.52 576.05 548.51 584.76 551.41 584.75 549.95 576.05 548.52 576.05"/>
      <polygon class="cls-1" points="459.76 814.59 462.66 814.59 462.66 808.79 459.76 808.79 459.76 814.59"/>
      <polygon class="cls-1" points="341.9 382.57 341.9 376.77 339 376.77 339 382.56 341.9 382.57"/>
      <polygon class="cls-1" points="865.7 388.39 867.12 388.39 867.13 379.67 864.23 379.68 865.7 388.39"/>
      <rect class="cls-1" x="548.52" y="768.06" width="1.43" height="10.17"/>
      <path class="cls-1" d="M593.62,765.15v5.81c2.9-.78,3.27-3.1,2.89-5.81h-2.89Z"/>
      <path class="cls-1" d="M726,320.02l-.71-7.26c-2.46,1.64-.67,4.57-2.19,7.25h2.9Z"/>
      <polygon class="cls-1" points="766.73 382.59 765.31 382.58 765.3 389.84 768.2 389.84 766.73 382.59"/>
      <polygon class="cls-1" points="608.2 611.69 610.35 613.85 612.52 608.05 609.62 608.05 608.2 611.69"/>
      <polygon class="cls-1" points="736.21 763.68 737.63 763.68 737.64 754.96 734.74 754.97 736.21 763.68"/>
      <path class="cls-1" d="M725.99,308.39v-8.72h-1.43c.42,3.41-2.85,7.54,1.43,8.72Z"/>
      <path class="cls-1" d="M593.62,702.58h1.43l1.46-8.72c-3.74,1.17-2.96,5.61-2.88,8.72Z"/>
      <path class="cls-1" d="M689.63,632.78c-5.33.02-5.33,4.33,0,4.35v-4.35Z"/>
      <polygon class="cls-1" points="618.37 23.3 615.45 27.62 619.78 30.55 618.37 23.3"/>
      <path class="cls-1" d="M215.31,680.78h-1.43v8.72c4.28-1.18,1.01-5.31,1.43-8.72Z"/>
      <rect class="cls-1" x="774.04" y="660.42" width="1.43" height="10.17"/>
      <polygon class="cls-1" points="548.52 654.6 548.51 663.31 551.41 663.3 549.95 654.6 548.52 654.6"/>
      <rect class="cls-1" x="769.67" y="432.04" width="1.43" height="10.17"/>
      <polygon class="cls-1" points="680.18 651.69 678 655.3 680.89 657.5 680.18 651.69"/>
      <polygon class="cls-1" points="774.04 656.03 775.46 656.04 775.47 650.23 772.57 650.23 774.04 656.03"/>
      <path class="cls-1" d="M485.94,276.4h-2.89s-1.47,4.34-1.47,4.34c2.65.49,4.82-1.59,4.36-4.34Z"/>
      <rect class="cls-1" x="577.61" y="23.3" width="2.89" height="4.35"/>
      <polygon class="cls-1" points="132.41 664.77 130.94 669.12 135.3 669.13 135.29 666.98 132.41 664.77"/>
      <path class="cls-1" d="M340.47,424.75h1.42s-.7-7.26-.7-7.26c-3.03,1.88-.72,4.26-.72,7.26Z"/>
      <path class="cls-1" d="M758.03,285.12v7.27h1.42c.08-3.09,2.59-6.18-1.42-7.27Z"/>
      <path class="cls-1" d="M68.99,674.3c-.58-.63-.81-1.39-.64-2.24h-1.42s.15,4.21.15,4.21l4.19,1.6-.05-2.85c-.77-.05-1.7-.13-2.24-.71Z"/>
      <polygon class="cls-1" points="523.74 10.92 519.42 7.29 520.88 13.1 523.74 10.92"/>
      <rect class="cls-1" x="728.93" y="286.58" width="1.43" height="8.71"/>
      <rect class="cls-1" x="411.75" y="642.96" width="2.89" height="4.35"/>
      <polygon class="cls-1" points="200.78 643.66 203.67 645.86 202.97 640.05 200.78 643.66"/>
      <polygon class="cls-1" points="766.73 292.4 765.31 292.4 765.3 298.2 768.19 298.2 766.73 292.4"/>
      <polygon class="cls-1" points="212.42 638.6 208.07 637.13 208.06 641.49 210.21 641.48 212.42 638.6"/>
      <polygon class="cls-1" points="164.4 692.42 161.49 692.42 162.96 699.67 164.39 699.67 164.4 692.42"/>
      <path class="cls-1" d="M132.41,638.58h1.42c.08-3.08,2.59-6.18-1.42-7.26v7.26Z"/>
      <path class="cls-1" d="M659.09,628.39c2.79-.23,4.92-.27,4.38,2.91h1.42s.01-4.34.01-4.34h-5.81s0,1.43,0,1.43Z"/>
      <polygon class="cls-1" points="686.73 631.31 689.63 631.3 689.63 625.51 686.73 625.51 686.73 631.31"/>
      <rect class="cls-1" x="459.76" y="394.22" width="2.89" height="4.35"/>
      <polygon class="cls-1" points="782.77 445.13 781.31 450.94 785.66 445.14 782.77 445.13"/>
      <rect class="cls-1" x="123.68" y="737.51" width="1.43" height="8.71"/>
      <rect class="cls-1" x="774.04" y="752.06" width="1.43" height="8.71"/>
      <polygon class="cls-1" points="747.11 318.57 747.82 312.76 744.92 312.77 747.11 318.57"/>
      <rect class="cls-1" x="189.15" y="592.05" width="2.89" height="4.35"/>
      <path class="cls-1" d="M247.34,379.68v5.8c2.91-.77,3.28-3.1,2.9-5.81h-2.9Z"/>
      <rect class="cls-1" x="593.62" y="778.24" width="2.89" height="4.35"/>
      <rect class="cls-1" x="194.97" y="779.69" width="2.89" height="4.35"/>
      <polygon class="cls-1" points="549.23 781.15 548.52 786.96 551.41 784.76 549.23 781.15"/>
      <path class="cls-1" d="M737.63,583.32h-1.42c-.08,3.08-2.59,6.18,1.42,7.26v-7.26Z"/>
      <rect class="cls-1" x="593.62" y="785.51" width="2.89" height="4.35"/>
      <rect class="cls-1" x="459.76" y="786.97" width="2.89" height="4.35"/>
      <path class="cls-1" d="M878.77,378.22c-.84-.83-4.33,1.21-4.33,2.18,0,4.03,6.53.02,4.33-2.18Z"/>
      <path class="cls-1" d="M548.52,808.77h1.42c.94-2.69.94-4.57,0-7.26h-1.42s0,7.26,0,7.26Z"/>
      <path class="cls-1" d="M205.15,805.88l2.94,4.33,2.85-2.16c-1.54-2.25-3.12-2.52-5.78-2.17Z"/>
      <polygon class="cls-1" points="736.93 581.85 737.64 576.05 734.74 576.05 736.93 581.85"/>
      <polygon class="cls-1" points="567.42 219.67 564.52 219.67 564.52 225.47 567.42 225.47 567.42 219.67"/>
      <polygon class="cls-1" points="596.51 815.3 594.33 811.7 593.62 817.51 596.51 815.3"/>
      <polygon class="cls-1" points="572.52 81.48 570.34 85.09 573.23 87.29 572.52 81.48"/>
      <rect class="cls-1" x="538.34" y="117.85" width="1.43" height="8.71"/>
      <path class="cls-1" d="M5.8,375.33c-.77.12-2.07.19-2.48-.39-.76-1.06-.37-2.7-.43-3.99h-1.43s0,5.81,0,5.81h4.35s0-1.43,0-1.43Z"/>
      <path class="cls-1" d="M412.47,321.51c-4.03,0-.02,6.53,2.17,4.33.84-.83-1.21-4.33-2.17-4.33Z"/>
      <rect class="cls-1" x="774.04" y="544.05" width="1.43" height="8.71"/>
      <polygon class="cls-1" points="295.33 853.88 293.91 853.88 292.44 859.68 295.34 859.68 295.33 853.88"/>
      <polygon class="cls-1" points="583.44 549.86 586.33 547.65 584.15 544.05 583.44 549.86"/>
      <polygon class="cls-1" points="568.89 477.88 568.88 480.03 573.24 480.02 571.07 475.68 568.89 477.88"/>
      <polygon class="cls-1" points="548.52 861.15 548.51 868.41 551.41 868.4 549.95 861.15 548.52 861.15"/>
      <rect class="cls-1" x="728.93" y="324.4" width="1.43" height="8.71"/>
      <polygon class="cls-1" points="638.71 210.95 634.36 209.48 634.36 213.85 638.7 213.84 638.71 210.95"/>
      <path class="cls-1" d="M768.19,333.12l-1.46-7.26h-1.42c-.22,2.72-.41,6.39,2.88,7.26Z"/>
      <path class="cls-1" d="M411.75,333.11h2.89s1.47-4.34,1.47-4.34c-2.65-.49-4.82,1.59-4.36,4.34Z"/>
      <rect class="cls-1" x="359.38" y="183.3" width="1.43" height="8.71"/>
      <path class="cls-1" d="M411.75,340.39h2.89s1.47-4.34,1.47-4.34c-2.65-.49-4.82,1.59-4.36,4.34Z"/>
      <rect class="cls-1" x="49.48" y="592.05" width="1.43" height="8.71"/>
      <path class="cls-1" d="M899.76,466.28h4.35s0-51.65,0-51.65c.38.58,1.09,1.07,2.28,1.4.57-2.16,2.89-14.48-.71-14.51-.86.89-1.4,1.63-1.71,2.26l-7.12,1.41c-.12-3.21-1.09-8.94,4.35-8.72l-1.45,5.8h4.37s-1.47-15.99-1.47-15.99c-2.95-.93-2.38,1.57-2.7,3.11l-.83-2.44c-.26-.05-.49-.07-.71-.09.88-3.67-2.28-5.94,1.34-8.58-5.81-1.04-1.89-8.6.75-5.08,1.33,1.77-2.22,7.83,2.14,8.73v-24.74s-1.45,4.37-1.45,4.37l-4.41-2.43.02-9.73,2.96-1.66-2.71-.86-.23-33.32-7.26,5.8-.82-12.13c.16-2.74-.05-5.63.19-7.57-.26-.04-.49-.05-.71-.04l-.14-2.08-1.34,2.68c-.4.39-.66.95-.82,1.63l-.75,1.5-1.45-4.37-.8.27c.51-8.62,1.12-17.21.14-24.99-.13-1.01-1.45-4.93-2.86-2.94l-2.9,7.96,1.46-13.07,4.35,2.89v-10.17c-3.31,1.8-2.04,5.76-7.26,4.35-.63-2.39,2.53-.67,2.94-2.38.54-2.26-.33-5.34-.05-7.79l-4.21,1.58-.12,6.76c-.65-.81-1.81-1.43-3.76-1.73l-.03,11.64-2.41-3.6c.24-5.84-.19-11.74-1.11-17.56-1.17.49-1.87,1.64-2.28,3.15v-5.27c-2.09-.35-2.11,2.45-2.31,3.89-.37,2.71-.39,5.82-.05,8.81-.8-.55-2.21-.46-2.57-1.43-.01-.04-.03-.09-.04-.16.06-.49.09-.96.03-1.39-1.07-7.76-.69-12.21-1-18.78.77-1.34,2.91-2.77,2.41-3.36l-2.91-1.45,2.9-1.45-3.66-.93c-.08-.45-.13-.91-.17-1.37.34-.07.66-.32.92-.63l-.26-5.31c.18-1.4.21-2.75-.19-3.79l-.27-5.43c-4.02,2.2-2.84,7.84-1.96,12.14.01,1.3.04,2.61.09,3.93l-.31-.08-1.17,28.34c-.35.28-1.08.33-2.59.08l-.17-8.63-2.06-.41.06-7.46c.22-.08.46-.15.73-.22l-.72-.4.1-12.04c-.13-2.8-1.96-2.61-3.26-2.68l-.24-3.49,2.01,1.08,1.48-8.72-2.92,5.8-.8-1.6-.03-.51-.19.05-.42-.84-.86,1.16-1.63.41-.4-1.59c2.92-1.19,6.66.52,4.61-4.76l-1.71-1.14v-.55h2.07s-2.91-7.27-2.91-7.27l-.26,2.11h-.32v2.63l-.85,6.89h-1.14s-2.4-9.53-2.4-9.53l-2.88,1.47v-8.73s1.46,5.81,1.46,5.81c7.45-4.19-3.79-10.58-8.74-8.71l4.34,4.35c-3.78-1.63-6.87-.55-5.82-5.82l-.57.38c-.06-.77-.12-1.54-.16-2.31.22.19.45.36.73.47l-.87-3.53c-.22-6.33-.02-12.73.03-18.94-7.84,2.93.66,11.07-3.51,13.03v-6.55c-2.37.31-3.5,6.83-3.58,8.51-.21,4.51,3.18,10.01-1.45,14.12-.06-.01-.11-.01-.18-.03,2.3-11.5-1.32-24.3-.02-36.34-4.92,3.05-4.72,4.79-2.9,10.17h-6.57c.06-.51.05-1.08-.02-1.66l2.22-5.61-3.85.78c-1.05-1.91-2.39-3.31-3.42-3.16v-.52s4.39-.73,4.39-.73l-4.37-.74,4.37-1.44-4.36-1.45v-11.58c10.71-.41-1.5-3.54-.03-8.78-6.3,2.9-2.13,8.04-2.14,10.81,0,.34,0,1.24-.03,2.39-.87-1.2-2.7-1.55-3.6-2.55v-2.45s-.76-.43-.76-.43c-.05-.68-.07-1.45-.08-2.26l.84-.41-.05-3.67-.8.2c0-1.26-.03-2.43-.11-3.37l.98-1.9-2.97-2.9c3.22-2.35,3.27-5.74,2.9-9.46l-1.61,2.67-2.65-1.15c-.09,1.39-1.03,2.67-1.21,4-.26,2-.36,4.58-.36,7.46-.48.47-1.11.82-2.02.8l2.04,1.7c.02,1.34.06,2.71.12,4.11l-1.07,1.07-.5-.14v-.16l-.08.14-3.43-.95,2.89-2.15-5.8-8c3.48.34,3.14-1.18,2.88-4.39l-2.67,1.11-.95-2.55c-.02.2-.1.43-.2.68.2-3.81,1.59-9.6-2.82-8.61-1.83,3.74-.5,8.97-.66,13.21-.76.82-1.34,1.43-1.38,1.58-.19.85-.14,1.96-.04,3.15-.45.56-1.02,1.05-1.76,1.44l-1.17-23.08-.84.84s0-.02,0-.03l-5.8-2.93c.07,2.81.15,5.68.2,8.57l-.81.81-2.91-11.63-2.02,11.97c-.82-.7-1.57-1.21-1.74-1,.26,1.42.21,2.41-.11,3.15l-2.1-7.57c.4-.08.69-.24.68-.59l-2.15-5.21-4.2.03c-.03-.29-.07-.58-.11-.87l3.6-4.22-4.36-.74,4.35-1.44c1.58-7.8-3.65-1.99-4.34-2.91-1.48-1.97.57-3.58,2.89-2.93-2.52-3.36-3.79-4.6-1.44-8.69l-5.08,1.41c-.88,3.44-.39,7.13-.15,10.61-1.62-1.69-2.81-3.55-1.21-7-5.7-1.19-1.02,7.06-3.76,8.59v-1.99c-1.14.31-1.74,1.05-2.04,2,.26-3.7.82-5.22-2.81-6.4.03-.49.05-.98.08-1.46,7.23.58,1.5-1.94.14-3.01.25-6.1.27-11.49-.4-12.96-.3-.66-1.91-1.84-2.21-1.44l.04,6.99c-1.41,1.16-1.57,3.06-1.45,4.88l-1.51,1.21,1.66.42c.04.35.07.67.09.98l-1.78,1v1c-.8-.29-1.92-.92-3.51-2l2.92-1.45-4.35-8-.74,14.53c-4.09-4.08-1.55-10.87-2.2-15.99l-2.24.76-.06-4.32c-2.51.14-2.08,2.91-1.69,4.91l-.36.12.53.79c.05.29.08.54.08.72v1.85l-4.84-2.06,1.32-3.34c-.89-1.14-4.84-4.99-5.31-5.88-.81-1.54,1.08-6.15.94-8.09-6.23,2.11-4.17,8.68-8.26,10.98h-2.06s-.17-.66-.17-.66l2.42-2.97-.32-.45,1.11.37v-4.36s-3.5.7-3.5.7l-.98-1.35c.08.56.11,1.06.13,1.52l-2.9.58,2.9-7.26c-7.26-2.15-2.96,6.7-8.72,5.8,2.41-8.46-6.55-7.43-4.39-15.99l-6.55,4.31c-3.48-3.4,1.16-8.3-6.52-7.21-.36.28,2.3,8.45-1.44,8.71.25-4.69,1.24-6.14-4.11-6.08l-.3-4.1-4.44.8-2.02-3.66-8.07,2.85-1.48-11.62-4.37,11.62-2.91-11.62c-4.14-3.02-4.17,16.39-4.34,19.35-.67.15-1.43.27-2.31.4.42.68.65,1.41.77,2.16-.36-.02-.8-.06-1.37-.09-2.54-5.98,2.09-20.13-4.36-21.85-1.06-.83,5.8-2.82,2.89-5.79-2.71-2.76-15.48,7.67-5.79,10.9l-2.72.94c1.04,3.72-1.39,6.86,2.71,7.76l-4.38,16.75-4.23-1.33-3.02,4.25c-.02-2.75.32-6.45-2.9-7.27-.24,4.05-4.03,5.94-7.28,7.27l-.73-5.81-1.42,7.28-5.9,1.31-2.17,10.3c-3.97,3.86-4.17-11.68-2.89-13.08l-4.3.02c-2.35,5.7,1.98,11.46-4.09,14.47-4.38,2.18-3.41-1.37-7.62-1.4l.72,2.9-4.97.09-.11,5.7c-4.23.2-2.59-4.74-8.72-2.9,2.61,8.11-2.87,8.38-4.07,11.17-.59,1.38-3.97,12.93-4.32,14.3-.39,1.49.7,7.08-.36,9.44l-1.6-2.67-2.74,1.23-.03-10.18-1.45,11.63c-6.06-1.6.54-12.69-5.8-11.63l-1.47,17.46-3.53-1.53c-5.09,8.95-1.45-1.18-5.18-2.84-.77,3.48-.13,18.53-1.74,20.18-.5.52-2.83-.2-3.67.51-.73.61-4.02,9.34-4.91,11.21-4.07-2.57-2.68-.28-2.8,3l-3.62-5.78-2.2,8.7-5.79-5.81c1.65,6.81-2.9,10.1-4.4,15.99l-2.9-5.81-1.45,5.81-7.32-.82c-.34.24-3.81,6.99-3.8,7.41.03,1.48,3.31,2.45,2.39,5.05l-4.34-1.45c.88,4.4,2.79,8.14.15,12.47,2.85,2.03,5.15,5.96,4.22,10.8l4.34-1.45.03,5.84,5.8-.02v-6.55s2.9-.7,2.9-.7l.75,2.59,2.11-1.13,1.54,7.24,5.08-5.81c.72,9.45,8.77,1.72,8.01-2.91l7.98,4.37.76-2.92,2.3,2.88,6.45-.67c1.36-.76-1.12-5.53,2.13-3.66,5.07,2.92-1.2,12.42,5.11,11.61-.76-2.73-1.87-14.34,2.9-13.07l1.45,14.53c.54-3.71-.78-8.65.05-12.08.17-.72,4.99-2.08,2.89-6.81,3.74-.03,1.16,6.98,1.45,7.26l4.34-1.45,1.45,5.81,1.49-10.16,4.33,2.9,1.35-5.19c6.99.31,6.99-4.64,13.21-2.09-1.17-4.45-1.49-8.39,4.36-8.72-2.1,4.74,2.7,6.09,2.89,6.81.82,3.21-2.17,8.88,2.94,7.71l1.47-21.8,4.37,7.27c5.02,1.17,2.22-7.25,4.36-10.17l2.91,8.71,3.75-4.47,7.88,4.46c-5.56-7.21,1.31-4.21.01-11.62l1.45,2.9,2.87-2.18-2.88-3.61,7.27-2.93-.05,5.07,8.78,2.18-2.91-5.79c2.52.33,4.51.16,4.51-2.75,4.2-1.08,3.34,3.6,4.94,5.65,3.05-2.43,4.09-3.62,2.19-7.25l2.88.02,4.38,7.23c1.35-1.56.08-9.7,3.62-8.69l5.12,3.62-4.35,2.16,13.07,5.12-2.16,3.62c2.75-.44,4.88,1.82,5.1-2.14.11-2.07-1.33-7.9,1.44-8.05v20.37l-2.3-3.02-4.96,1.58c-.63,2.4,2.53.63,2.93,2.38.43,1.89-.23,4.31-.04,6.34-6.6-2.29-15.61,2.3-13.09,10.18l-2.92-8.73c-1.94-2.54-6.11,20.5-5.48,22.53.11.34,4.15,3.27,4.03,5.85,3.28,1.23.66-8.1,1.47-9.47,4.57-1.93,8.87,7.4,7.28,8.7-.86.71-4.83-1.39-4.37,1.46,3.52.34,8.55,1.71,8.74,5.82l2.16-2.89,2.18,7.27-6.41-.02-2.29-2.89.73,5.84,6.52-.04-7.26,5.12,2.92,1.45-2.96,3.62-4.3-2.89-2.93,4.37c-.53-4.58.19-10.5-.45-14.87-.2-1.38-.47-4.4-2.46-4.03l-.03,17.43h-5.8s1.48-6.5,1.48-6.5l-2.91-.74c-3.01,6.05-4.41,10.64-2.95,17.44-6.37-2.59,2.1-13.77-5.79-14.57l2.89-4.33-4.13-.24-.25-4.12-2.93.75c4.03,7.84-2.15,2.4-4.36,8.74l2.93,1.41-3.08,5.03-4.19-1.39v5.81c-5.48,1.44-1.53-5.36-3.13-7.07l-5.6-1.65-.74,7.27-5.08-7.26c.68,2.81-.95,9.43-4.45,6.59-1.27-1.03-.55-4.15-2.82-3.68l-3.66,8.71c-1.92-8.07,1.25-17.54-4.36-24.71l-.89,6.6-4.19.68,2.89,3.6-3.63,3.65-3.65-13.07.02,5.8-4.38-5.8-5.8,5.8c2.38-6.92-.52-11.42-5.1-15.98l-.73,4.37-2.92-4.37-5.8,2.92,2.9,2.16c-1.2,2.57-5.44,4.27-7.13,2.02-1.07-1.42,1.44-5.95-1.58-5.65-2.23,3.13,2.85,12.78-2.92,11.62l-1.48-21.8-2.9,23.26c-3.7,1.68-2.53-2.84-3.55-2.77l-3.71,1.34-1.45-4.37c.68,8.05-7.84,2.86-5.98,11.54l-4.18.12-.78,8.69-4.35-8.75-3.66.88v6.42s-5.79-1.45-5.79-1.45c1.2,4.61-4.17,3.64-1.46,7.26l-10.18.03c1.45-1.8-3.99-9.18-5.82-7.29-1.47,2.59-.14,8.03-.52,9.54-.47,1.84-3.32,1.35-3.8,3.05-.69,2.46,1.56,12.17-.06,15.78l-2.9-.73,2.89,4.36c-5.16.94-5.69-.36-8.01-4.34h-2.14s-1.41,3.57-1.41,3.57l-2.97-.66-.02,7.28-2.86-1.45-1.54,5.79-2.86-1.45-2.94,24.73-4.33-2.93c6-6.75.74-5.29.28-6.46-.19-.47-1.15-8.8-1.19-10.09-.13-3.33,3.56-14.94-2.01-13.96,1.38,16.84.77,33.96-6.58,49.41,3.06,4.81-1.1,7.73-2,12.96,6.84,2.24,2.58,2.65,2.31,4.46-.4,2.62-2.12,9.04-2.08,9.54.09,1.22,2.83,2.32,3.3,4.33.67,2.86.14,7.75.71,10.91l1.45-2.91c5.03,2.32,2.28,9.86,2.9,14.54l5.6-5.02-.52-6.61c4.45,3.55,5.36,9.15,5.11,14.54l7.25-4.36c-.68,4.81,1.61,7.4,5.13,10.17l5.07-2.89-1.46,4.35h5.77c1.06,9.02,6.58,15.43,4.45,25.26l-2.96,1.66,2.96,1.66v9.78l-2.96,1.66,2.97,1.65-.03,19.44,4.34-2.91,1.45,4.36c1.71-8.06-1.49-9.33-4.46-15.15l4.47-3.04-4.36-2.18c3.64-3.93.68-11.98,0-17.43l4.35,4.34c-.7-2.14.14-6.5-.29-8.05-.25-.89-3.66-.08-2.59-2.83,1.88-4.86,6.99-1.86,7.26-2.19-1.95-7.27,4.1-8.99,4.38-14.56l3.62,8.74c.96-3.8,1-4.61,5.08-5.84-.79,3.95,1,4.6,4.36,5.83l.22-5.59,4.71-1.5,3.9,7.02,10.09-2.84,1.45,2.9,2.91-8.71,2.2,16.01,2.19-11.65c3.7-1.63,2.71,3,3.6,2.92,4.54-.41,2.41-5.01,5.1-5.83l2.98,6.53-2.95,3.65,2.89-.72,1.47,6.55,4.34-1.46c.26,4.75-2.03,11.16,4.37,11.65l-4.36,1.5,2.2,7.2c1.84-4.06,4.3-7.51,2.77-12.08l2.3-14.08c.99,4.03.27,8.23.51,12.07.5,8.06,2.99,20.66-.51,27.96,8.14,3.41-4.06,5.08,2.23,10.88,1.78,1.64,5.03,1.01,5.1,2.23l-1.51,5.03-2.87-2.89-1.47,4.33,5.82,1.5c-1.55,5.97-3.17,7.3.72,13.07l.71-6.52,2.92.71c-2.8-6.14-5.04-10.48,2.91-13.1.93,2.6-2.4,3.61-2.4,5.05,0,.69,1.86,2.63,2.33,4.5.73,2.91-1.68,7.04,2.98,6.47l-4.37,5.06c4.72,1.39,1.43,2.47,2.01,5.08,1.91,8.56.76,8.93.98,16.72.27,9.16,3.25,26.18-1.57,32.13,6.08,10.26-5.06,16.31,3.06,24.58l-.08,2.81c-5.32,1.89-1.29,1.33-.7,5.34.69,4.78-.58,10.43.39,15.24l-2.63,1.38c.93.84,2.17,1.94,2.39,3.16,2.2,11.98.15,26.07.52,38.3,5.72,1.11,1.72-6.2,1.91-9.28,1.28-21.19,3.15-43.76,3.2-65.05.02-6.56-.13-46.4-1.06-48.65-.44-1.06-2.92-.19-2.6-1.37,7.72-10.25-2.41-25.3,5.1-35.65-.95,4.72,1.21,8.82,1.54,12.35.1,1.06-2.87,5.26.66,9.46l2.89-.75,2.89-5.06c2.18,3.47-.96,7.74-.86,9.41.07,1.08,1.86,2.19,1.93,4.06.04,1.22-3.19,12.71,1.83,10.56l4.38-1.49-5.09,3.62.74,3.62-2.93-.72c.8,4.68,1.83,8.33-1.47,12.44l2.99,1.47-1.54,7.93-4.36-.02-1.43-2.91,3.01-2.34-1.69-8.42,3.03-2.31-2.9-.73,2.89-5.1c-8.73,5.73-2.82,19.73-5.98,28.42l3.1,2.85-3.01,1.53c2.76,5.33.23,11.23,1.04,16.81.39,2.68-.46,5.03,3.41,4.19-2.11-.93-.93-19.25,2.91-14.52l1.46,29.07-4.36.02,1.44-13.09h-5.81s1.37,13.63,1.37,13.63c9.94,1.79,6.41,12.19,5.9,19.8l7.26-1.44c1.72,7.65-2.46,14.02,2.95,20.33l2.89-.7-1.46-10.89,5.8,1.44v-5.82s-4.33,1.47-4.33,1.47l-1.46-5.84h7.2c2.62,9.23,2.27,19.12,4.29,28.44.51,2.34,2.45,1.94,2.88,3.09,1.17,3.09-3.02,5.8-2.76,9.18l4.37.03c-2.02-4.66,2.67-6.09,2.86-6.85,1.81-7.2.08-18.85,1.51-26.61,3.2-.49,2.9.08,3.47,2.77,1.44,6.76.47,16.35.9,23.41,6.72-5.22,3.32-18.43,4.36-26.18,3.62.24,1.53,5.53,1.92,6.95.09.35,4.38,1.19,2.42,6.14l-2.88.69,5.08,10.93,2.5-21.5,6.94-.3.02-7.27c4.77-1.06,2.5,3.4,2.88,6.43l5.83.82-2.92-2.17c4.95.19,5.95-3.52,3.09-7.14-1.49-1.89-4.9.49-4.52-2.3l5.84-.85v-18.07c2.28-.17,1.84,5.36,1.97,7.09.66,9.37-1.77,21.45-.65,30.1.37,2.84,3.12,1.51,3.2,4.22.14,4.48-7.17,13.06,1.27,13.85v-31.98h4.38l-1.25,2.68c6.97,2.04.88,3.32,2.44,8.68l-2.64,1.69,5.8,2.93c-1.42-8,.6-15.86.91-23.74.17-4.29-3.91-10.33,2.02-11.9l-.02-2.16-2.89-.02c-.49-.28,6.63-7.9,8.72-5.8-3.64,16.92,6.27,14.6,4.46-.8-.18-1.51-.08-3.37-1.46-4.38-6.42-4.69-2.12,4.83-7.35,3.71l.07-37.01,2.82-3.72v10.91s.01,24,.01,24l5.81,1.47c2.08-1.58-.81-35.91.45-41.82.34-1.59.36-3.06,2.46-3.28-2.6,7.01,8.37,6.93,1.48,11.63l-1.45-4.35,2.88,11.59-4.34,2.23,5.78,2.9-4.32-.72v11.62l2.88-4.35c-1.11,5.34,2.02,14.64-.02,19.28-.84,1.92-3.4.17-2.87,2.51,12.28.33,1.9,2.96-.01,8.73l7.26,1.48,1.48-26.19c6.27,4.17,7.06-5.47,0-1.46v-27.62l4.34,2.89,1.49-5.07-5.82.71c-1.71-4.99,3.68-4.76,4.34-6.88.8-2.57.62-20.15.05-22.65-.44-1.92-5.5-1.58-4.39-5.38l5.76.75-1.54-5.71,3.06-1.59c-4.02.25-3.46-10.59,1.43-9.45l-1.3,6.64c5.35,1.3,1.24,4.68,1.28,8.73.06,5.99,2.62,10.76-1.44,16.61l4.36,1.47v-186.19c-7.32,3.32-2.12,5.6-2.17,8.8-.04,3.32-.87,7.8-2.06,10.96l2.78,1.32c-4.57,1.94.25,10.28-5.81,9.46v-21.81s-4.36,2.9-4.36,2.9l-.03-3.62,4.38-.74c-1.41-3.73.79-8.33-2.92-10.92l2.9-5.07-4.34,2.91-.03-11.63-2.88,2.89c1.42-4.82,6.1-22.36.7-24.71-6.57-2.86-3.19,9.54-3.64,10.18l-2.89-1.48c.97,6.71-1.66,10.86,4.36,16l-4.36.03,2.92,2.17-2.61.91-.33,11.45-2.97-5.13.77-48.69,2.2-1.45,4.38,2.92c-5.01,3.75-5.02,5.11-4.35,11.62,3.27-2.85,6.16-3.62,7.47,1.2l4.14-1.19c-1.46-1.17-2.9-2.02-2.97-2.45-.31-1.99,2.13-6.08.07-9.19l4.22-.09c.78-.85.19-12.03.59-14.79.2-1.37.47-4.4,2.46-4.03,1.4,4.95,4.72,7.89,0,12.38,6.81,1.17.52,12.61,1.48,13.79.94.11,2.9-1.93,2.9-2.18v-28.36l-2.85-.04-.05-2.87,5.81,1.45v27.64l5.81-7.27c1.15,27.18,1.58,54.23,0,81.45l-5.79-5.81v168.72l2.57-12.46c1.05-6.05-4.91-21.48,3.22-22.44-.44,17.76,1.02,35.43,1.47,53.08.14,5.65-3.3,15.8,1.43,19.64,1.79-4.45-.73-18.13.27-21.14.37-1.13,3.13-.11,2.65-1.4-2.31-2.6-3.29-13.86-3.04-17.49.2-2.86,2.98-1.98,3.12-3.05.46-3.41-3.15-7.19-2.99-10.73l4.47-.8-.06-14.28-2.96-1.66c-.06-.73,7.73-.81-1.27-5.74l1.3-5.18,2.88,1.48c.54-3.92.04-3.66-2.9-5.08l4.29-8.85c-5.39-1.29-2.5-6.05,1.52-7.89-.77,7.74-2.51,12.6,7.24,13.09.96-4.32,4.25-8.44-2.86-7.29l-1.44,4.37-1.45-7.96,4.33-.76v-4.36s-4.34.74-4.34.74c3.85-3.77,8.06-10.45,1.43-13.1,4.86-1.13,2.71-7.08,3.57-11.09l-3.54,1.62v-7.27c3.34,2.73,2.47-1.44,5.79-1.47l-2.88-1.43c-1.7-3.61,2.69-2.63,2.96-3.65,1.18-4.37-1.43-3.39-1.52-3.62v2.92s-2.75-1.23-2.75-1.23l-1.6,2.67-1.47-14.53c6.96-.65-.98,12.01,5.82,10.17-2.09-5.28,4.5-4.55-1.5-6.75,1.19-3.69-1.73-12.8,2.88-12.21l.09-2.12-5.96-7.25.09-2.77c6.07-2.12.68-3.72.06-7.48-.86-5.22.94-11.21-1.51-16.68l4.37-1.44c-2.27.32-2.46-.22-3.08-2.18-2.15-6.75.68-18.53.16-26.2-.12-1.71-.55-7.81-2.89-8.01v51.64c0,3.11,1.34,11.06-2.9,9.46l-.02-26.18c-2.46-.84-.52,7.65-4.35,4.34-.48-.41.92-11.56,4.38-10.89l-4.39-.73,4.39-5.08-4.39-.74c-.98-5.75,4.93-7.06.01-11.61l4.37-.73c-7.94-4.81-2.72-17.6-4.37-25.45l4.35,4.34.02-6.54-3.69-.61-.68-11.74c6.6,3.02,6.42-1.57,0-2.19l7.26-12.37v34.91c5.25,1.11,1.24-4.32,1.45-8,.19-3.21,1.01-6.32,1.47-9.46l2.88,1.47c-2.44-7.44,7.09-8.02.01-13.84,5.17-1.69,3.24-8.05,2.91-12.35h4.35c.55.47-4.38,10.35,1.44,11.63l2.91-27.63c1.81,5.21-1.02,20.06.1,23.81.34,1.13,2.87.94,2.8,1.57-.41,4.02-3.75,5.91.04,12.43l4.33-4.36.03,13.08,2.88-2.89v7.27c-1.51-1.35-4.8.36-5.53-.28-.84-.73.69-3.24-1.72-2.64l-.02,7.99,7.27-3.62,1.48,82.9c5.5-3.3,1.38-10.65,1.33-15.28-.2-18.7,1.11-37.86.05-56.77,1.86-8.44.33-16.97.96-25.57.18-2.41-.32-9.2,2-10.01,1.03,4.46-.76,14.22,0,17.91.24,1.16,2.79.9,2.99,1.95.7,3.84-1.49,14.95-.1,19.93l2.97,1.65c-4.25,1.16-2.9,5.04-4.44,8.65l2.84,1.42-1.16,18.78,1.22,1.78,4.4.62,1.51-3.63-2.95-1.43,2.92-1.45c-3.84-2.41-1.26-5.69-1.44-9.47,5.59-.89,1.03,2.73,1.78,4.12,2.69,4.97,5.85,10.46,1.12,17.01,6.32,1.54-3,11.1,4.38,13.03l-2.92,5.11,2.91,1.45-2.91.03,2.93,2.17-4.4,1.45,3.04,1.59-1.57,6.4,5.41-2.17.9-90.25,2.41-2.12,1.45,4.36.02-10.17c8.12.04.65,10.95,2.14,14.5.6,1.43,3.36,2.93,4.41,4.4l2.16-2.9c2.13,8.17-6.56.92-5.8,7.24l5.82,1.46-1.07-2.58c3.29-.4,3.15-3.66,2.49-6.62-.11-.48-5.25-2.51-2.87-5.33,1.07-1.27,5.8,3.44,5.81,3.78.05,1.7-2.06,4.13-1.45,6.38h4.35c-.9-3.87-.61-7.77-.98-11.63-.26-2.69.43-1.58,2.44-1.45-.07,7.07,1.27,14.06,1.6,21.09.15,3.03-1.46,6.32-1.2,8.56.23,2.01,2.62,3.87,2.59,5.96-.01.85-2.48.6-2.79,1.46-.14.39.3,7.54,2.01,8,4.15,1.63,1.39-11.61,2.18-13.07l5.79,4.36c-.08-4.21,1.15-6.66,5.83-5.81l.2,7.07,5.62.18-1.28-6.58,2.73-2.13-2.9-.73c5.66-2.25-1.59-11.73,4.36-10.92v32l2.9-4.36,2.38,5.9c-2.06-6.2,1.86-12.88.64-19.66-.33-1.17-10.25-.62-.81-5.08l.35-44.68c.73,1.37,1.46,2.75,2.17,4.13-.19.58-.33,1.21-.38,1.92-.16,2.29,1.02,2.11,2.2,1.6.38.74.74,1.49,1.12,2.23-1.35,2.13-3.31,3.68-3.41,4.89-.24,2.8,1.53,6.25.13,9.46l4.35-1.44-.68,5.84-2.98.28-.71,3.32,4.35.75.03,55.24c3.82,1.45,3.95-6.04,4.03-8.09.69-18.72-1.86-38.5.89-57.4,0-.07.04-.13.05-.2,1.23,2.7,2.45,5.41,3.62,8.14l-2.8,1.57,2.97,1.65-.04,28.15c5.57,4.52,2.74-16.58,2.79-18.19.05-1.81.15-3.65.27-5.51.61,1.51,1.22,3.01,1.81,4.53,1.4,3.6,2.74,7.23,4.01,10.88-2.97-.34-2.52,2.2,1.09,3.15.02.06.04.11.05.17l-2.78,1.56.05,13.61,1.45-4.37,5.11,1.47c.14.49.29.99.43,1.48-5.44.19-5.43,5.75.27,5.79v-4.81c.92,3.31,1.79,6.64,2.59,9.98-.59,3.01-1.42,6.84,1.77,7.93l-.02-.15c2.09,9.96,3.61,20.04,4.47,30.18,1.32,1.04,3.03,1.25,4.89-.14v5.83s-4.41,1.09-4.41,1.09c0,.12.01.23.02.35h4.39s.05,89.42.05,89.42l-4.41,1.53c-1.07,3.17,3.46,1.93,4.25,4.52,1.03,3.33-2.07,8.21.13,12.19-4.57-1.01-4.71,2.37-7.27,5.11l5.8-3.64.11,4.99-5.91,3.01,2.92,1.45c-4.25,1.22-4.47,4.25-.02,5.81l-2.9,3.63,2.9.73c-4.37,3.59-.66,11.01-2.92,16.73l-2.88-2.89-1.47,3.64,4.23.82c1.94,5.94-1.88,5.18-3.31,7.18-.47.66.34,2.01-.02,2.6-.41.67-3.86-.36-2.35,3.2l2.89,1.44c-6.51-.33-1.33,10.4-1.58,13.92-.26,3.62-4.77,12.5-2.07,16.68,1.25,1.93,5.84,1.24,3.65,8.7l-4.37-.71,4.39,7.97,1.45-5.81,5.8,1.46v-4.36s-5.8,1.45-5.8,1.45v-4.36s5.8,1.45,5.8,1.45l.12-10.06,7.15-.12-1.46-5.81-3.64,4.34c-2.47,1.34-2.72-2.38-2.19-3.63.62-1.49,6.1.09,7.27-5.85,1.32-6.69-3.47-14.81,2.94-20.35-7.16-2.86-.93-10.13-2.88-15.82l2.9-1.62c-8.9-4.28,1.27-3.43,2.23-3.84,1.26-.54.51-3.88,2.1-4.91l-7.24,2.2,2.9-3.62c-4-2.95-4.29-7.89,1.45-8l1.44,5.8c1.97-6.64.28-13.28.45-19.97.16-6.14,2.24-16.82,1.86-22.98-.21-3.38-4.47-4.71.61-9.4l-2.9-.73,2.95-4.36-3.66-5.05-5.11,1.39,1.47-10.17c6.12-1.42.48,6.45,1.45,7.27ZM659.1,337.49l1.42,13.07c-4.83-2.38-1.88-9.17-1.42-13.07ZM702.74,338.95h2.89v7.26h-2.89v-7.26ZM824.16,187.74c-.08.7-.34,1.27-.67,1.78v-2.18c.4.18.68.3.67.39ZM815.2,176.98l1.63,8.55h-1.87s-.22-.77-.22-.77c-1.15-.3-1.42.17-1.48.79h-2.25c-.23-2.02.49-4.43.04-6.34-.39-1.62-3.17-.19-3.02-1.96.11-.13.21-.26.3-.41l6.87.14ZM799.49,154.21l1.87,2.51c-.28,2.84-.91,5.73-2.35,5.88-.59-.57-.95-1.66-1.09-2.88v-2.35c.19-1.5.7-2.81,1.57-3.15ZM780.43,132.45l.3-.17c-.06.07-.12.13-.18.2-.04-.01-.08-.02-.12-.03ZM778.58,140.34c.15,2.3.04,4.44-1.64,5.13l-.28-5.59,1.92.46ZM772.73,119.13l-1.03,1.03c.05-1.01.49-1.15,1.03-1.03ZM754.27,114.28h2.9v4.36c.05-.05.29-.05.62-.03l-.81,1.84c-.01-.91.03-1.59.19-1.81h-2.9v-4.36ZM723.81,87.62l.75,1.11-.74-.31v-.8ZM862.75,263.28c.03-.09.05-.16.07-.24.16.86.34,1.71.56,2.5-1.95,0-3.01-.42-3.54-1.1.7-.77,1.66-1.25,2.91-1.16ZM890.3,390.62c-4.03,0-.02-6.53,2.17-4.33.84.84-1.21,4.33-2.17,4.33ZM889.59,335.36l1.42-14.53c-.11,1.94,2.1,3.48,2.28,5.12.05.5-2.06,9.44-3.7,9.41ZM897.04,390c-.07-.03-.13-.06-.2-.09.02-.03.04-.06.06-.08.05.06.09.12.14.17ZM906.28,407.43c.32.47-1.39,2.37-2.16,4.31v-5.49c.73.79,2.05,1.02,2.16,1.18ZM896.85,406.66c4.11-.69,2.45.84,3.12,3.37,1.21,4.55.51,8.2,1.24,12.62h-4.36s0-15.99,0-15.99ZM896.85,432.84v-7.29h4.35s0,7.27,0,7.27l-4.36.02Z"/>
      <path class="cls-1" d="M872.12,576.85c3.4,6.6-1,5.39-1.38,6.73-.44,1.54-1.1,12.72-1.43,15.95-.47,4.7,3.4,6.06-3.05,8.61,5.39,5.6-3.66,8.18,2.94,13.07l-2.93,1.45,2.89,1.62.02,9.29c-4.54-1.86-4.53-4.99-3.48-9.19l-2.31-14.08-.02,37.8-4.35.02c-2.34-4.71,1.3-9.4,1.26-12.29-.04-3.36-1.08-10.62-1.63-14.28-.19-1.27-.65-4.37-2.54-3.98v58.17c4.87.39,2.02-.54,2.05-2.43.11-6.95,1.11-13.88.85-20.82,6.45-1.25.24,7.22,5.81,5.8l.02-18.9c4.32.11,8.7,8.74,10.14.7.45-2.5.94-7.81,1.08-10.5.65-12.39,1.47-36.54-1.07-49.1-.52-2.56,1.54-4.34-2.88-3.64Z"/>
      <path class="cls-1" d="M911.95,440.58c.05-3.87,1.65-8,.9-12.12h-4.35c.69,3.69-1,7.36-1.02,10.77-.02,3.63.06,7.44.05,11.49-.02,3.6.25,11.58,3.9,11.93-7.31,5.12-2.08,19.31-4.08,27.47l5.5,2.34,1.46-39.26-4.38-.73c5.86-1.63,1.97-7.82,2.02-11.9Z"/>
      <path class="cls-1" d="M802.29,716.47c-3.19,6.42,2.73,14.54-4.37,17.46l-.03-10.18-1.45,5.83-4.31.82,1.43,29.71,4.33-1.55.03-15.9,5.81,4.36c-.85-5.1.3-5.75,4.37-8.01l-4.37-.73.71-2.88,3.65.71c-1.76-5.8-7.45-.47-4.34-8l4.34,2.89v-8.71l-4.34,2.89-.03-3.62,4.38-3.63-5.81-1.48Z"/>
      <path class="cls-1" d="M797.7,587.6c-.23-2.25-.36-4.3-2.68-2.03-.9.88-1.82,14.97-1.62,16.83.3,2.82,3.14,1.9,3.11,2.81-.09,2.34-3.81,5.66-3.93,11-.14,6.29,1.46,13.87,1.69,20.28l1.44-4.06,2.2.4-.02-34.19-2.89,1.48-.04-3.65c3.6-.18,3.07-5.65,2.73-8.88Z"/>
      <path class="cls-1" d="M806.63,576.1l1.51-5.06,2.86,1.45v-4.37c-1.37.7-2.96.92-4.35,1.45-2.54,10.27-9.22,21.77-4.3,31.26l-2.84,1.35,4.23,12.48v-33.46c7.63-.82-2.06,12.34,2.89,14.54,2.54-5.31-1.1-15.11,4.41-16.72l-.04-3.64-4.37.71Z"/>
      <path class="cls-1" d="M800.85,570.29l2.86,2.17c-.4-3.75,1.57-2.37,2.94-2.9,2.29-9.29-1.92-2.68-5.79.73Z"/>
      <path class="cls-1" d="M824.83,509.9c2.63-.09,4.08-11.33-.75-10.88l2.96-1.66v-33.12s-4.39-.85-4.39-.85l2.91,3.61c-1.29,2.88-4.72,6.35-4.5,8.78.23,2.6,2.24,1.95,2.54,2.51.29.55-.85,1.73-.52,2.26.76,1.19,4.85-1.72-.43,4.64l2.88.03.02,2.15-4.47,3.14,3.75,19.39Z"/>
      <path class="cls-1" d="M781.17,741.22c-2.45,10.07-2.89,20.34-.7,30.53l5.62-21.18c-4.87-1.19-1.13-6.44-4.92-9.35Z"/>
      <path class="cls-1" d="M821.2,706.31c-.79,3.26,3.71,7.54,3.86,9.49.18,2.34-4.4,3.92-.23,6.47,5.02-5.12,2.06-10.43.73-15.97-1.45.09-2.92-.07-4.36,0Z"/>
      <path class="cls-1" d="M824.11,683.03c1.88,2.88-.82,5.22-.84,6.51-.02,1.12,2.19,2.3,1.98,4.11-.18,1.57-3.11,3.98-2.26,7.57.07.3,1.64,1.25,2.56,5.08.96-.06,1.94.09,2.9,0l-1.52-12.29,2.97-1.46-5.8-9.52Z"/>
      <path class="cls-1" d="M908.5,400.82c-1.96,4.47.82,7.75,1.02,10.58.19,2.76-3.36,11.72,3.33,11.24l.04-16.51-2.96-1.66,2.92-3.63-4.35-.02Z"/>
      <path class="cls-1" d="M843.03,669.92v11.64s1.45-4.38,1.45-4.38l2.9,1.48v-26.18l-4.38,15.26c4.08-2.3,5,5.77.03,2.18Z"/>
      <path class="cls-1" d="M816.48,704.57l-2.58,1.01.09,2.13,2.85.78-.03,2.17-2.87.05c3.31,4.01,4.23,11.43-.03,15.25l4.35,5.07v-34.9c-4.88,1.15.02,6.36-1.79,8.45Z"/>
      <path class="cls-1" d="M818.91,517.93c-.03-1.5.19-6.83-2.07-6.54-.22,2.2.74,5-.41,6.97-.18.31-6.94,3.07.41,2.49-.11,6.46-.87,14.05-.66,20.36.07,2.01-.14,8.97,2.08,9.45-.8-10.76.85-22.09.65-32.72Z"/>
      <path class="cls-1" d="M813.91,501.89l4.36,8.03v-29.08c-2.11-.51-1.03,1.26-2.06,2.27-.62.61-1.42.8-2.27.66l2.96,2.37v8.29s-3,1.67-3,1.67l2.97,1.44v2.94s-2.96,1.41-2.96,1.41Z"/>
      <path class="cls-1" d="M835.75,680.12c1.54,4.96-.08,10.61.19,15.09.08,1.42.53,6.86,2.7,6.72.12-6.61,2.1-13.56-1.36-19.74l2.82-2.06h-4.35Z"/>
      <path class="cls-1" d="M772.05,769.61c-.96-2.08-.25-5.85,2.61-5.86l-2.61-.91-.33-8.55c-5.16,3.44-.69,13.61-.73,18.17-.03,3.72-1.67,7.28-2.16,10.91,5.36,1.13,2.06-6.17,2.88-9.23.33-1.23,4.93-.61,2.9-3.83-.14-.22-2.04.41-2.55-.7Z"/>
      <polygon class="cls-1" points="838.52 673.42 840.1 667.03 835.74 667.04 837.91 678.65 841.57 676.46 841.47 674.36 838.52 673.42"/>
      <path class="cls-1" d="M907.02,511.36l5.82,1.47v-10.18c-3.7,1.35-4.41,5.57-5.82,8.71Z"/>
      <path class="cls-1" d="M789.2,645.21l.28,2.53c.06-.92,0-1.78-.28-2.53Z"/>
      <path class="cls-1" d="M790.62,658.29l-1.15-10.56c-.26,3.96-2.7,8.98,1.15,10.56Z"/>
      <path class="cls-1" d="M781.17,629.21l-.71,8.71c3.32,4.36,3.12-8.36.71-8.71Z"/>
      <path class="cls-1" d="M851.63,648.53l-2.79,11.2c5.43,1.01,2.21-7.96,2.79-11.2Z"/>
      <path class="cls-1" d="M851.63,648.53l.1-.41c-.04.12-.08.26-.1.41Z"/>
      <path class="cls-1" d="M789.2,744.11l1.42-11.62c-2.99,1.58-2,8.93-1.42,11.62Z"/>
      <path class="cls-1" d="M768.82,687.38h2.9s0-7.26,0-7.26c-3.19.67-2.12,4.6-2.89,7.26Z"/>
      <path class="cls-1" d="M770.28,678.66c4.32-1.24.94-5.51,1.42-8.72-3.73.68-1.41,6.29-1.42,8.72Z"/>
      <path class="cls-1" d="M789.2,633.57c.96,3.37-3.16,8.68,1.43,10.18-.74-2.45,1.8-9.44-1.43-10.18Z"/>
      <path class="cls-1" d="M809.57,560.83c3.06.25,1.93-8.3,1.42-8.72-4.28,1.18-1,5.31-1.42,8.72Z"/>
      <polygon class="cls-1" points="779.01 677.2 783.36 677.19 781.89 672.84 779.01 675.04 779.01 677.2"/>
      <path class="cls-1" d="M845.31,682.37c-.53.58-1.47.66-2.24.71l-.05,2.85,4.19-1.6.15-4.21h-1.42c.17.86-.06,1.62-.64,2.25Z"/>
      <path class="cls-1" d="M780.47,646.65h1.42v-7.26c-4.01,1.08-1.51,4.18-1.42,7.26Z"/>
      <rect class="cls-1" x="789.2" y="745.58" width="1.43" height="8.71"/>
      <rect class="cls-1" x="863.4" y="600.12" width="1.43" height="8.71"/>
    </g>
  </g>
</svg>