<?xml version="1.0" encoding="UTF-8"?>
<svg id="Layer_2" data-name="Layer 2" xmlns="http://www.w3.org/2000/svg" viewBox="0 0 1119.32 259.33">
  <g id="Layer_1-2" data-name="Layer 1">
    <g>
      <path d="M6.55,221.31c3.79-11.51,3.57-23.84,6.45-35.56,2.74-11.78,8.39-23.03,9.79-35.18.71-5.55.32-11.13-1.06-16.55-1.65-6.85-4.63-14.91-.3-21.24,5.68-8.9,23.21-9.64,27.85.71,2.36,5.3.52,11.55-1.19,16.89-2.67,8.26-5.44,16.54-8.45,24.76-3.76,11.52-8.29,22.92-11.37,34.66-1.68,5.33-4.8,24.01,5.57,14.52,10.34-12,17.39-27.43,25.53-40.92,4.99-8.72,10.15-17.51,14.12-26.64,6.47-13.62,6-31.65,16.14-43.58,7.33-8.88,24.29-11.12,31.8-1.57,6.24,7.56,2.55,17.91-1.07,25.89-6.84,15.13-11.76,31.36-17.22,47.24-1.59,4.36-9.42,32.06,2.63,22.84,4.29-3.92,7.75-10.05,10.95-15.06,4.74-7.69,9.08-15.63,13.57-23.47,6.13-10.85,13.07-22.01,17.49-33.75,3.08-8.15,4.53-16.92,7.09-25.24,2.43-7.94,6.39-15.48,13.97-19.43,16.33-8.62,34.99,3.77,26.7,22.39-5.63,14.02-19.4,17.39-28.89,27.46-4.99,5.55-8.22,12.21-11.95,18.51-8.14,13.16-14.69,27.75-21.9,41.51-5.72,10.54-13.37,20.14-18.47,31.05-3.85,8.11-6.74,17.27-13.62,23.4-10.79,10.6-28.3,5.75-27.99-10.2.65-8.84,6.28-17.29,7.99-26.16,2.24-9.22,2.47-18.77,4.49-28.03,1.29-6.26,3.39-12.31,5.45-18.38,7.38-21.85-1.08-9.46-6.67.89-4.31,7.52-7.93,13.27-12.13,21.51-4.46,8.65-8.47,17.77-13.3,26.14-5.54,9.59-12.49,18.65-17.15,28.78-2.76,5.82-4.91,12.02-8.58,17.36-7.82,12.37-25.79,17.08-32.04,1.13-2.88-9.16,3.22-17.8,5.72-26.46l.08-.25Z"/>
      <path d="M170.63,258.56c-11.26.41-21.07-8.02-23.13-18.95-2.07-9.13-.55-18.73.52-27.85.91-7.26,1.28-14.58,2.57-21.78,1.16-6.86,3.73-13.43,6.64-19.86,3.91-9.31,9.13-17.65,14.24-26.22,6.43-12.53,8.28-20.19,21.04-28.23,11.59-8.33,22.47-5.45,31.56,4.45,7.52,8.31,14.02,19.38,14.14,30.36.06,9-4.16,17.23-7.14,25.54-2.1,5.64-3.83,11.24-5.82,16.87-5.4,14.25-10.55,29.41-18.43,42.7-7.88,11.64-21.35,21.87-35.94,22.98h-.25ZM172.45,232.49c5.73.88,11.07-4.59,14.77-8.58,5.78-6.59,10.8-14.15,14.45-22.22,3.74-8.36,6.12-17.39,8.76-26.22,1.85-6.44,3.83-14.08,2.99-20.63-.47-2.65-.94-4.59-3.18-4.01-2.05.61-5.21,4.3-8.99,5.7-5.32,2.08-12.56-.64-17.28,2.25-5.06,3.12-7.23,9.61-9.44,14.95-4.3,11.51-8.04,23.37-8.23,35.77.22,6.7-1.8,20.42,5.96,22.96l.18.04Z"/>
      <path d="M238.32,259.33c-16.21-.28-23.65-16.54-20.3-31.27,4.08-20.38,18.56-36.28,26.58-55.01,4.83-10.78,10.25-21.52,14.39-32.53,5.87-15.48,9.12-32.34,16.66-47.24,5.78-12.03,19.12-13.9,18.22,1.77-.3,3.89-1.45,7.77-2.51,11.55-2.84,9.68-5.71,19.91-8.6,29.98-1.54,5.54-3.21,9.63-3.94,13.28-.07,1.52,1.65-.78,2.86-2.15,8.03-10.36,17.3-19.99,26.24-29.25,7.95-7.81,15.57-17.75,26.7-20.84,6.5-1.83,13.37,1.53,15.78,7.67,3.3,8.75-.01,21.11-2.95,30.22-3.37,9.45-9.92,20.07-20.42,18.28-4.44-.87-7.32-5.99-9.46-8.56-.77-.89-1.71-1.75-2.91-1.81-6.03-.07-23.13,25.32-26.4,31.33-4.6,8.38-9.77,16.47-13.7,25.18-7.52,16.7-6.5,38.32-20.24,52.12-4.4,4.44-10.05,7.25-15.75,7.28h-.24Z"/>
      <path d="M323.08,247.86c-5.11-18.82,3.12-37.57,10.69-54.51,4.54-9.86,8.21-19.76,11.5-29.95,3.02-8.78,5.67-17.33,8.27-26.18,3.37-10.83,7.66-21.54,10.16-32.66,2.91-13.1,6.19-25.85,10.07-38.58,2.7-10.98,5.6-21.7,8.28-32.76,2.25-8.72,1.83-18.11,5.64-26.28,2.5-5.01,7.39-8.3,12.47-6.4,7.03,2.58,7.81,12.45,6.65,19.13-1.28,8.34-2.61,16.46-4.88,24.51-2.05,6.7-4.69,13.48-6.67,20.33-3.41,13.37-6.64,26.24-10.46,39.4-7.22,26.94-16.09,52.9-21.64,80.48-3.14,16.55-2.34,34.61-7.89,50.63-3.62,13.2-24.46,36.27-32.1,13.08l-.08-.25Z"/>
      <path d="M433.45,238.7c1.18-7.96,5.41-15.41,9.41-22.32,7.72-12.62,15.68-25.03,19.75-39.3,3.52-12.81,8.48-25.41,11.31-38.34,1.04-4.99,1.86-10.15,2.43-15.2.56-4.46.4-8.54-3.35-4-6.06,7.65-8.85,15.69-13.66,24.61-4.12,7.66-9.07,15.24-12.81,23.01-4.91,10.44-10.32,20.79-17.11,30.22-4.31,6.08-8.68,12.26-12.92,18.63-5.51,7.8-10.46,16.43-18.02,22.41-13.43,10.94-33.19.88-32.32-16.47.29-12.13,6.33-23.14,11.21-34.05,5.35-13.27,11.89-26.09,20.74-37.41,5.99-7.38,12.85-14.23,19.88-20.67,4.84-4.3,10.81-7.72,16.22-10.85,3.53-2.06,7-4.26,10.47-6.72,6.88-5.04,13.13-9.47,16.14-17.24,2.99-7.52,4.73-16.81,6.96-24.13,2.79-9.77,5.82-19.95,7.05-29.92,1.1-7.57,1.39-19.53,9.92-22.02,5.25-1.57,11.22,3.4,12.79,8.86,3.58,10.58-1.62,21.56-3.75,31.96-3.14,15.52-3.22,31.7-2.65,47.52.84,12.9-.12,25.92-1.96,38.59-.54,8.14-1.18,16.32-4.78,23.56-4.79,9.52-6.06,20.08-8.86,30.33-4.95,17.52-2.55,39.82-16.58,53.26-12.38,11.47-27.92,2.26-25.57-14.07l.03-.26ZM394.53,216.51c10.08-6.23,15.74-18.2,21.77-28.17,8.53-13.26,14.5-27.79,22.19-41.43,15.75-28.83,2.58-16.9-9.75-1.43-6.23,7.31-13.39,13.94-18.39,22.07-2.68,3.94-30.52,53.98-15.99,49.03l.17-.07Z"/>
      <path d="M594.51,258.56c-11.26.41-21.07-8.02-23.13-18.95-2.07-9.13-.55-18.73.52-27.85.91-7.26,1.28-14.58,2.57-21.78,1.16-6.86,3.73-13.43,6.64-19.86,3.91-9.31,9.13-17.65,14.24-26.22,6.43-12.53,8.28-20.19,21.04-28.23,11.59-8.33,22.47-5.45,31.56,4.45,7.52,8.31,14.02,19.38,14.14,30.36.06,9-4.16,17.23-7.14,25.54-2.1,5.64-3.83,11.24-5.82,16.87-5.4,14.25-10.55,29.41-18.43,42.7-7.88,11.64-21.35,21.87-35.94,22.98h-.25ZM596.32,232.49c5.73.88,11.07-4.59,14.77-8.58,5.78-6.59,10.8-14.15,14.45-22.22,3.74-8.36,6.12-17.39,8.76-26.22,1.85-6.44,3.83-14.08,2.99-20.63-.47-2.65-.94-4.59-3.18-4.01-2.05.61-5.21,4.3-8.99,5.7-5.32,2.08-12.56-.64-17.28,2.25-5.06,3.12-7.23,9.61-9.44,14.95-4.3,11.51-8.04,23.37-8.23,35.77.22,6.7-1.8,20.42,5.96,22.96l.18.04Z"/>
      <path d="M662.2,259.33c-16.21-.28-23.65-16.54-20.3-31.27,4.08-20.38,18.56-36.28,26.58-55.01,4.83-10.78,10.25-21.52,14.39-32.53,5.87-15.48,9.12-32.34,16.66-47.24,5.78-12.03,19.12-13.9,18.22,1.77-.3,3.89-1.45,7.77-2.51,11.55-2.84,9.68-5.71,19.91-8.6,29.98-1.54,5.54-3.21,9.63-3.94,13.28-.07,1.52,1.65-.78,2.86-2.15,8.03-10.36,17.3-19.99,26.24-29.25,7.95-7.81,15.57-17.75,26.7-20.84,6.5-1.83,13.37,1.53,15.78,7.67,3.3,8.75-.01,21.11-2.95,30.22-3.37,9.45-9.92,20.07-20.42,18.28-4.44-.87-7.32-5.99-9.46-8.56-.77-.89-1.71-1.75-2.91-1.81-6.03-.07-23.13,25.32-26.4,31.33-4.6,8.38-9.77,16.47-13.7,25.18-7.52,16.7-6.5,38.32-20.24,52.12-4.4,4.44-10.05,7.25-15.75,7.28h-.24Z"/>
      <path d="M813.24,238.7c1.18-7.96,5.41-15.41,9.41-22.32,7.72-12.62,15.68-25.03,19.75-39.3,3.52-12.81,8.48-25.41,11.31-38.34,1.04-4.99,1.86-10.15,2.43-15.2.56-4.46.4-8.54-3.35-4-6.06,7.65-8.85,15.69-13.66,24.61-4.12,7.66-9.07,15.24-12.81,23.01-4.91,10.44-10.32,20.79-17.11,30.22-4.31,6.08-8.68,12.26-12.92,18.63-5.51,7.8-10.46,16.43-18.02,22.41-13.43,10.94-33.19.88-32.32-16.47.29-12.13,6.33-23.14,11.21-34.05,5.35-13.27,11.89-26.09,20.74-37.41,5.99-7.38,12.85-14.23,19.88-20.67,4.84-4.3,10.81-7.72,16.22-10.85,3.53-2.06,7-4.26,10.47-6.72,6.88-5.04,13.13-9.47,16.14-17.24,2.99-7.52,4.73-16.81,6.96-24.13,2.79-9.77,5.82-19.95,7.05-29.92,1.1-7.57,1.39-19.53,9.92-22.02,5.25-1.57,11.22,3.4,12.79,8.86,3.58,10.58-1.62,21.56-3.75,31.96-3.14,15.52-3.22,31.7-2.65,47.52.84,12.9-.12,25.92-1.96,38.59-.54,8.14-1.18,16.32-4.78,23.56-4.79,9.52-6.06,20.08-8.86,30.33-4.95,17.52-2.55,39.82-16.58,53.26-12.38,11.47-27.92,2.26-25.57-14.07l.03-.26ZM774.33,216.51c10.08-6.23,15.74-18.2,21.77-28.17,8.53-13.26,14.5-27.79,22.19-41.43,15.75-28.83,2.58-16.9-9.75-1.43-6.23,7.31-13.39,13.94-18.39,22.07-2.68,3.94-30.52,53.98-15.99,49.03l.17-.07Z"/>
      <path d="M889.75,250.44c-2.22-2.25-4.1-4.81-5.55-7.61-2-3.76-2.89-8.22-4.63-11.19-4.87-8.72-18.11-5.35-21.14-17.17-1.1-4.21-.01-8.98,2.63-12.45,4.5-6.02,12.12-4.12,15.45-9.16,1.91-2.84,2.6-7.57,3.58-11.09,3.48-12.15,8.32-25.53,17.1-35.21,8.74-9.84,18.16-19.64,28.39-28.17,7.95-6.35,16.41-17.05,27.51-15.91,5.64.8,11.36,6.29,13.5,12.73,4.94,15.85-11.85,26.93-20.45,37.92-4.1,4.9-7.88,10.05-11.82,15.07-5.81,7.54-12.54,14.33-18.5,21.74-5.94,8.02-14.95,15.84-17.77,25.26-1.93,7.32.59,18.03,8.54,20.48,5.53,1.43,13.16-3.06,19.09-6.49,9.52-5.26,16.78-13.11,21.8-23.13,5.26-9.89,9.75-22.02,17.42-28.32,8-7.12,23.95-7.16,30.05,2.4,6.79,12.5-3.84,26.89-13.63,34.55-5.27,4.3-11.11,7.96-16.72,11.82-12.39,8.86-24.35,18.34-38.41,24.61-13.41,6.7-24.02,11.71-36.24-.5l-.19-.19ZM901.22,178.11c10.24-8.49,19.24-18.26,27.47-28.79,6.11-8.07,13-16.93,17.7-26.05,1.93-5.13-5.09,1.01-6.52,2.13-11.24,10.06-22.88,19.21-31.4,31.89-2.05,2.91-22.55,33.42-7.44,20.99l.19-.16Z"/>
      <path d="M1005.87,259.33c-16.21-.28-23.65-16.54-20.3-31.27,4.08-20.38,18.56-36.28,26.58-55.01,4.83-10.78,10.25-21.52,14.39-32.53,5.87-15.48,9.12-32.34,16.66-47.24,5.78-12.03,19.12-13.9,18.22,1.77-.3,3.89-1.45,7.77-2.51,11.55-2.84,9.68-5.71,19.91-8.6,29.98-1.54,5.54-3.21,9.63-3.94,13.28-.07,1.52,1.65-.78,2.86-2.15,8.03-10.36,17.3-19.99,26.24-29.25,7.95-7.81,15.57-17.75,26.7-20.84,6.5-1.83,13.37,1.53,15.78,7.67,3.3,8.75-.01,21.11-2.95,30.22-3.37,9.45-9.92,20.07-20.42,18.28-4.44-.87-7.32-5.99-9.46-8.56-.77-.89-1.71-1.75-2.91-1.81-6.03-.07-23.13,25.32-26.4,31.33-4.6,8.38-9.77,16.47-13.7,25.18-7.52,16.7-6.5,38.32-20.24,52.12-4.4,4.44-10.05,7.25-15.75,7.28h-.24Z"/>
    </g>
  </g>
</svg>